<?xml version="1.0" encoding="UTF-8"?>
<svg version="1.1" xmlns="http://www.w3.org/2000/svg" width="128" height="128">
<path d="M0 0 C9.41049206 7.88688858 15.46431013 16.90408101 19.875 28.3125 C20.2153125 29.13621094 20.555625 29.95992187 20.90625 30.80859375 C26.07882375 45.7755317 23.91321875 64.0883026 17.5546875 78.25390625 C9.50461983 94.06811022 -2.61183801 104.92822919 -19.125 111.3125 C-19.94871094 111.6528125 -20.77242188 111.993125 -21.62109375 112.34375 C-36.5880317 117.51632375 -54.9008026 115.35071875 -69.06640625 108.9921875 C-84.88061022 100.94211983 -95.74072919 88.82566199 -102.125 72.3125 C-102.4653125 71.48878906 -102.805625 70.66507812 -103.15625 69.81640625 C-108.32882375 54.8494683 -106.16321875 36.5366974 -99.8046875 22.37109375 C-91.75461983 6.55688978 -79.63816199 -4.30322919 -63.125 -10.6875 C-62.30128906 -11.0278125 -61.47757813 -11.368125 -60.62890625 -11.71875 C-39.97348449 -18.85726376 -16.88231997 -12.70069918 0 0 Z " fill="#4788C6" transform="translate(105.125,13.6875)"/>
<path d="M0 0 C3.81276475 1.67096954 6.9355962 4.13647443 10.1875 6.6875 C11.04589478 7.35036011 11.04589478 7.35036011 11.92163086 8.02661133 C14.55330424 10.06314377 17.14996397 12.12446578 19.7109375 14.25 C20.48695312 14.889375 21.26296875 15.52875 22.0625 16.1875 C22.73410156 16.75855469 23.40570313 17.32960938 24.09765625 17.91796875 C25.91151048 19.21584244 25.91151048 19.21584244 27.84375 18.68359375 C28.5553125 18.45800781 29.266875 18.23242188 30 18 C32.14421728 17.90689223 34.29126791 17.87003761 36.4375 17.875 C37.54996094 17.87242188 38.66242188 17.86984375 39.80859375 17.8671875 C43 18 43 18 45.45703125 18.8515625 C49.72635744 19.10077048 52.14713022 16.18855278 55.25 13.5 C56.58325126 12.39182833 57.91658435 11.28375511 59.25 10.17578125 C60.50045652 9.1177268 61.75049198 8.05917441 63 7 C64.74018508 5.55063389 66.48808075 4.11036571 68.25 2.6875 C68.91515625 2.13449219 69.5803125 1.58148437 70.265625 1.01171875 C71.12414062 0.51091797 71.12414062 0.51091797 72 0 C72.99 0.33 73.98 0.66 75 1 C73.32903046 4.81276475 70.86352557 7.9355962 68.3125 11.1875 C67.64963989 12.04589478 67.64963989 12.04589478 66.97338867 12.92163086 C64.93685623 15.55330424 62.87553422 18.14996397 60.75 20.7109375 C59.7909375 21.87496094 59.7909375 21.87496094 58.8125 23.0625 C58.24144531 23.73410156 57.67039063 24.40570313 57.08203125 25.09765625 C55.78415756 26.91151048 55.78415756 26.91151048 56.31640625 28.84375 C56.54199219 29.5553125 56.76757812 30.266875 57 31 C57.09310777 33.14421728 57.12996239 35.29126791 57.125 37.4375 C57.12886719 39.10619141 57.12886719 39.10619141 57.1328125 40.80859375 C57 44 57 44 56.1484375 46.45703125 C55.89922952 50.72635744 58.81144722 53.14713022 61.5 56.25 C62.60817167 57.58325126 63.71624489 58.91658435 64.82421875 60.25 C65.8822732 61.50045652 66.94082559 62.75049198 68 64 C69.44936611 65.74018508 70.88963429 67.48808075 72.3125 69.25 C72.86550781 69.91515625 73.41851562 70.5803125 73.98828125 71.265625 C74.32214844 71.83796875 74.65601562 72.4103125 75 73 C74.505 74.485 74.505 74.485 74 76 C71.08076818 74.63728552 68.61523275 73.0677556 66.06640625 71.1015625 C64.9690918 70.25851563 64.9690918 70.25851563 63.84960938 69.3984375 C63.09486328 68.81320313 62.34011719 68.22796875 61.5625 67.625 C60.81162109 67.0475 60.06074219 66.47 59.28710938 65.875 C58.18786133 65.02808594 58.18786133 65.02808594 57.06640625 64.1640625 C56.35887207 63.62168945 55.65133789 63.07931641 54.92236328 62.52050781 C53.32025791 61.25331042 51.78841014 59.89792257 50.27734375 58.5234375 C48.11986987 56.73044376 48.11986987 56.73044376 45.59765625 57.2421875 C44.31181641 57.61730469 44.31181641 57.61730469 43 58 C40.81399532 58.09097204 38.62539091 58.13007043 36.4375 58.125 C35.32246094 58.12757812 34.20742188 58.13015625 33.05859375 58.1328125 C30 58 30 58 28.03662109 57.33105469 C25.96056751 56.77841552 25.96056751 56.77841552 24.18823242 58.00048828 C23.2810144 58.77755127 23.2810144 58.77755127 22.35546875 59.5703125 C21.67806641 60.1375 21.00066406 60.7046875 20.30273438 61.2890625 C19.60470703 61.89492187 18.90667969 62.50078125 18.1875 63.125 C4.19759403 75 4.19759403 75 0 75 C0.60051349 71.33019531 2.12974937 69.32172694 4.5 66.5 C5.21027344 65.62988281 5.92054687 64.75976562 6.65234375 63.86328125 C7.85945597 62.39104621 9.06658102 60.91882168 10.27392578 59.44677734 C11.55268974 57.87235658 12.80903355 56.28209972 14.0625 54.6875 C14.83722656 53.72199219 15.61195312 52.75648437 16.41015625 51.76171875 C18.2575398 49.1734468 18.2575398 49.1734468 17.75390625 46.5546875 C17.50511719 45.71164063 17.25632812 44.86859375 17 44 C16.90902796 41.81399532 16.86992957 39.62539091 16.875 37.4375 C16.87242188 36.32246094 16.86984375 35.20742188 16.8671875 34.05859375 C17 31 17 31 17.65087891 29.01855469 C18.21142093 26.99055191 18.21142093 26.99055191 17.12304688 25.31176758 C16.65962891 24.76157959 16.19621094 24.2113916 15.71875 23.64453125 C14.95437622 22.71688965 14.95437622 22.71688965 14.17456055 21.77050781 C13.62195557 21.12436523 13.06935059 20.47822266 12.5 19.8125 C11.39182124 18.47013945 10.28374799 17.1276918 9.17578125 15.78515625 C8.11798592 14.52276805 7.05945369 13.26099675 6 12 C4.55179598 10.25884769 3.11178313 8.51077364 1.6875 6.75 C1.13449219 6.08484375 0.58148437 5.4196875 0.01171875 4.734375 C-0.32214844 4.16203125 -0.65601562 3.5896875 -1 3 C-0.67 2.01 -0.34 1.02 0 0 Z " fill="#F8FAFC" transform="translate(27,26)"/>
<path d="M0 0 C4.40608743 2.16298837 7.1987497 4.39680479 9 9 C9.68426057 14.04325384 9.5739862 17.83076884 7.3125 22.4375 C4.28115306 25.79656012 2.25860352 27.69355631 -2.33203125 28.31640625 C-8.04951809 28.58213652 -11.60250453 27.96847152 -16 24 C-19.38570467 20.16286804 -19.51291172 16.36598538 -19.3515625 11.4375 C-18.67904883 6.77473854 -16.30117669 4.14809708 -12.875 1.125 C-8.55651358 -0.56484251 -4.5732948 -0.65960983 0 0 Z " fill="#4581BA" transform="translate(69,50)"/>
<path d="M0 0 C6.63157895 6.44736842 6.63157895 6.44736842 9 10 C8.70058965 11.34135839 8.35928121 12.67342324 8 14 C7.90689223 16.14421728 7.87003761 18.29126791 7.875 20.4375 C7.87242188 21.54996094 7.86984375 22.66242188 7.8671875 23.80859375 C7.86730235 26.93183638 7.86730235 26.93183638 8.75390625 29.546875 C9.12919616 33.28786017 7.32573077 34.9225284 5.0625 37.8125 C4.31097656 38.78832031 3.55945313 39.76414063 2.78515625 40.76953125 C2.19605469 41.50558594 1.60695313 42.24164063 1 43 C-1.94003883 39.60289631 -3.77796234 36.61587041 -5.25 32.375 C-5.58515625 31.43398437 -5.9203125 30.49296875 -6.265625 29.5234375 C-7 27 -7 27 -7 24 C-7.86882813 24.02320312 -8.73765625 24.04640625 -9.6328125 24.0703125 C-10.78523438 24.08835937 -11.93765625 24.10640625 -13.125 24.125 C-14.26195312 24.14820312 -15.39890625 24.17140625 -16.5703125 24.1953125 C-20.05757767 23.99672109 -22.7553862 23.2524801 -26 22 C-25.505 20.515 -25.505 20.515 -25 19 C-21.00204108 18.04380267 -17.29196078 17.8960408 -13.1875 17.9375 C-12.02605469 17.94652344 -10.86460938 17.95554687 -9.66796875 17.96484375 C-8.78753906 17.97644531 -7.90710938 17.98804687 -7 18 C-6.9175 16.845 -6.835 15.69 -6.75 14.5 C-6.07113784 8.9707169 -3.96014223 3.96014223 0 0 Z " fill="#CFCECF" transform="translate(37,43)"/>
<path d="M0 0 C4.34821084 3.76061478 6.6848369 7.35442182 8 13 C8 14.65 8 16.3 8 18 C13.94 18.33 19.88 18.66 26 19 C26 20.32 26 21.64 26 23 C25 24 25 24 21.18359375 24.09765625 C19.60153318 24.09098089 18.01948841 24.07901875 16.4375 24.0625 C15.63119141 24.05798828 14.82488281 24.05347656 13.99414062 24.04882812 C11.99606244 24.03700518 9.99802217 24.01906914 8 24 C7.91363281 24.6290625 7.82726562 25.258125 7.73828125 25.90625 C6.69437014 32.26548829 4.80155764 36.80550521 1 42 C-5.79245283 35.39622642 -5.79245283 35.39622642 -8 32 C-7.708776 30.32546201 -7.36721528 28.6595306 -7 27 C-6.90902796 24.81399532 -6.86992957 22.62539091 -6.875 20.4375 C-6.87242188 19.32246094 -6.86984375 18.20742188 -6.8671875 17.05859375 C-6.84165663 14.11206858 -6.84165663 14.11206858 -7.75390625 11.92578125 C-8 10 -8 10 -6.34765625 7.421875 C-5.59355469 6.54015625 -4.83945313 5.6584375 -4.0625 4.75 C-2.93521484 3.41195312 -2.93521484 3.41195312 -1.78515625 2.046875 C-1.19605469 1.37140625 -0.60695313 0.6959375 0 0 Z " fill="#CECCCD" transform="translate(90,43)"/>
<path d="M0 0 C0 3 0 3 -1.79296875 4.859375 C-2.58316406 5.48328125 -3.37335938 6.1071875 -4.1875 6.75 C-4.96480469 7.38421875 -5.74210937 8.0184375 -6.54296875 8.671875 C-9.63572286 10.34363398 -10.6715774 9.90684568 -14 9 C-16.18600468 8.90902796 -18.37460909 8.86992957 -20.5625 8.875 C-21.67753906 8.87242188 -22.79257812 8.86984375 -23.94140625 8.8671875 C-26.88793142 8.84165663 -26.88793142 8.84165663 -29.07421875 9.75390625 C-31 10 -31 10 -33.578125 8.34765625 C-34.90070312 7.21650391 -34.90070312 7.21650391 -36.25 6.0625 C-37.14203125 5.31097656 -38.0340625 4.55945312 -38.953125 3.78515625 C-39.62859375 3.19605469 -40.3040625 2.60695313 -41 2 C-30.21004493 -10.47588555 -12.6885132 -8.0745084 0 0 Z " fill="#C9C8C9" transform="translate(84,36)"/>
<path d="M0 0 C0.68449219 0.24878906 1.36898437 0.49757813 2.07421875 0.75390625 C4.21843603 0.84701402 6.36548666 0.88386864 8.51171875 0.87890625 C9.62417969 0.88148437 10.73664063 0.8840625 11.8828125 0.88671875 C15.01055119 0.88470967 15.01055119 0.88470967 17.65234375 0 C20.07421875 -0.24609375 20.07421875 -0.24609375 22.75 1.40625 C24.05517578 2.53740234 24.05517578 2.53740234 25.38671875 3.69140625 C26.26972656 4.44292969 27.15273437 5.19445312 28.0625 5.96875 C28.72636719 6.55785156 29.39023438 7.14695312 30.07421875 7.75390625 C24.98146089 13.33951165 18.99387824 15.31838853 11.55859375 16.14453125 C4.37736016 16.36214439 -1.86235745 15.86384205 -7.92578125 11.75390625 C-9.28964565 10.45181968 -10.63039544 9.12413658 -11.92578125 7.75390625 C-10.35560932 6.38450057 -8.76912734 5.0337773 -7.17578125 3.69140625 C-5.85320313 2.56025391 -5.85320313 2.56025391 -4.50390625 1.40625 C-1.92578125 -0.24609375 -1.92578125 -0.24609375 0 0 Z " fill="#CBCACB" transform="translate(54.92578125,82.24609375)"/>
<path d="M0 0 C3.8359375 1.6875 3.8359375 1.6875 5.3125 4.5 C6 7 6 7 5 9 C4.90248453 11.10231877 4.87023313 13.20792623 4.875 15.3125 C4.87242188 16.44300781 4.86984375 17.57351562 4.8671875 18.73828125 C4.89178375 21.94074141 4.89178375 21.94074141 5.66015625 24.7421875 C5.77230469 25.48726562 5.88445313 26.23234375 6 27 C3.5625 29.8125 3.5625 29.8125 1 32 C-4.01925382 26.06815457 -4.42193086 19.77987087 -4.3359375 12.28125 C-3.86248666 7.65684641 -2.31198695 3.99437031 0 0 Z " fill="#4882BA" transform="translate(40,48)"/>
<path d="M0 0 C2.14421728 0.09310777 4.29126791 0.12996239 6.4375 0.125 C7.54996094 0.12757812 8.66242188 0.13015625 9.80859375 0.1328125 C12.95092408 0.10544416 12.95092408 0.10544416 15.734375 -0.66015625 C16.48203125 -0.77230469 17.2296875 -0.88445312 18 -1 C20.8125 1.4375 20.8125 1.4375 23 4 C17.06815457 9.01925382 10.77987087 9.42193086 3.28125 9.3359375 C-1.34315359 8.86248666 -5.00562969 7.31198695 -9 5 C-7.27986541 -0.16040378 -4.98464035 -1.28913113 0 0 Z " fill="#4981B8" transform="translate(57,83)"/>
<path d="M0 0 C1.7421875 0.94921875 1.7421875 0.94921875 3.7421875 3.94921875 C1.5546875 6.01171875 1.5546875 6.01171875 -1.2578125 7.94921875 C-2.93513483 7.67448492 -4.6013872 7.33019657 -6.2578125 6.94921875 C-8.44381718 6.85824671 -10.63242159 6.81914832 -12.8203125 6.82421875 C-13.93535156 6.82164063 -15.05039062 6.8190625 -16.19921875 6.81640625 C-19.15179266 6.82908432 -19.15179266 6.82908432 -21.48828125 7.5703125 C-22.07222656 7.69535156 -22.65617187 7.82039063 -23.2578125 7.94921875 C-26.0078125 6.13671875 -26.0078125 6.13671875 -28.2578125 3.94921875 C-28.2578125 3.28921875 -28.2578125 2.62921875 -28.2578125 1.94921875 C-19.00408565 -3.2852126 -9.97460992 -3.45274959 0 0 Z " fill="#4C85BC" transform="translate(76.2578125,38.05078125)"/>
<path d="M0 0 C0.66 0 1.32 0 2 0 C6.37177604 7.72867551 7.28906856 14.99015332 5.421875 23.6953125 C3.6465604 29.56895973 3.6465604 29.56895973 0 32 C-2.0625 29.8125 -2.0625 29.8125 -4 27 C-3.72526617 25.32267767 -3.38097782 23.6564253 -3 22 C-2.90902796 19.81399532 -2.86992957 17.62539091 -2.875 15.4375 C-2.87242188 14.32246094 -2.86984375 13.20742188 -2.8671875 12.05859375 C-2.87986557 9.10601984 -2.87986557 9.10601984 -3.62109375 6.76953125 C-3.74613281 6.18558594 -3.87117188 5.60164063 -4 5 C-2.1875 2.25 -2.1875 2.25 0 0 Z " fill="#4C84BA" transform="translate(86,48)"/>
<path d="M0 0 C4.40117327 3.80642012 6.56195801 7.33913629 8 13 C8.1875 16 8.1875 16 8 18 C6.68 18.33 5.36 18.66 4 19 C3.67 20.98 3.34 22.96 3 25 C2.67 25 2.34 25 2 25 C1.96132812 23.98292969 1.96132812 23.98292969 1.921875 22.9453125 C1.53760841 16.63984714 0.41161362 11.83717359 -2.453125 6.19140625 C-2.63359375 5.46824219 -2.8140625 4.74507812 -3 4 C-1.609375 1.71484375 -1.609375 1.71484375 0 0 Z " fill="#CAC9CA" transform="translate(90,43)"/>
<path d="M0 0 C1.32 1.32 2.64 2.64 4 4 C3.72285156 4.59425781 3.44570313 5.18851563 3.16015625 5.80078125 C0.34772081 12.23635416 -0.73376357 17.99798181 -1 25 C-1.45890625 24.36578125 -1.9178125 23.7315625 -2.390625 23.078125 C-3.86298955 20.97123886 -3.86298955 20.97123886 -5.75 19.75 C-7.54267026 17.24026163 -7.07447315 15.13586083 -6.5859375 12.19921875 C-5.36001373 7.59791822 -3.37559626 3.37559626 0 0 Z " fill="#C9C8C9" transform="translate(37,43)"/>
<path d="M0 0 C0.639375 0.4125 1.27875 0.825 1.9375 1.25 C1.9375 2.24 1.9375 3.23 1.9375 4.25 C-0.0425 5.24 -2.0225 6.23 -4.0625 7.25 C-4.0625 6.59 -4.0625 5.93 -4.0625 5.25 C-2.7425 4.92 -1.4225 4.59 -0.0625 4.25 C-0.0625 3.26 -0.0625 2.27 -0.0625 1.25 C-0.85914062 1.59224609 -0.85914062 1.59224609 -1.671875 1.94140625 C-2.37828125 2.22886719 -3.0846875 2.51632813 -3.8125 2.8125 C-4.50859375 3.10253906 -5.2046875 3.39257812 -5.921875 3.69140625 C-8.36262784 4.32831803 -9.7028655 4.05248831 -12.0625 3.25 C-4.02748906 -0.98632385 -4.02748906 -0.98632385 0 0 Z " fill="#BCBABC" transform="translate(82.0625,87.75)"/>
<path d="M0 0 C1.65 1.65 3.3 3.3 5 5 C4.67 5.66 4.34 6.32 4 7 C3.34 5.68 2.68 4.36 2 3 C-0.1385485 5.1385485 -0.42655063 6.13275314 -1 9 C-2.1875 6.75 -2.1875 6.75 -3 4 C-1.625 1.6875 -1.625 1.6875 0 0 Z " fill="#BAB9BA" transform="translate(90,43)"/>
<path d="M0 0 C0.99 0.33 1.98 0.66 3 1 C2.27683594 1.61488281 2.27683594 1.61488281 1.5390625 2.2421875 C0.90742187 2.78101563 0.27578125 3.31984375 -0.375 3.875 C-1.00148438 4.40867187 -1.62796875 4.94234375 -2.2734375 5.4921875 C-3.55836651 6.61432007 -4.79371975 7.79371975 -6 9 C-5.70381606 5.44579276 -5.19662957 4.19662957 -2.625 1.625 C-1.325625 0.820625 -1.325625 0.820625 0 0 Z " fill="#4078AE" transform="translate(57,51)"/>
<path d="M0 0 C0.66 0 1.32 0 2 0 C2 0.99 2 1.98 2 3 C1.01 3.66 0.02 4.32 -1 5 C-1.66 5.99 -2.32 6.98 -3 8 C-3 3.77471908 -2.74375671 2.95481492 0 0 Z " fill="#487DB0" transform="translate(86,48)"/>
<path d="M0 0 C2.6875 0.875 2.6875 0.875 5 2 C4.4225 2.12375 3.845 2.2475 3.25 2.375 C0.97664233 3.00648824 -0.9253529 3.88858191 -3 5 C-3 4.01 -3 3.02 -3 2 C-2.01 1.34 -1.02 0.68 0 0 Z " fill="#BDBABB" transform="translate(47,87)"/>
<path d="M0 0 C0.99 0.33 1.98 0.66 3 1 C1.35 2.65 -0.3 4.3 -2 6 C-2.66 5.67 -3.32 5.34 -4 5 C-4 4.34 -4 3.68 -4 3 C-2.1875 1.3125 -2.1875 1.3125 0 0 Z " fill="#3C75AC" transform="translate(53,82)"/>
</svg>
