<?xml version="1.0" encoding="UTF-8"?>
<svg version="1.1" xmlns="http://www.w3.org/2000/svg" width="16" height="16">
<path d="M0 0 C2.5 1.5 2.5 1.5 4 4 C4.791013 8.02098277 4.62153384 10.96411027 2.5 14.5 C-1.03588973 16.62153384 -3.97901723 16.791013 -8 16 C-10.5 14.5 -10.5 14.5 -12 12 C-12.791013 7.97901723 -12.62153384 5.03588973 -10.5 1.5 C-6.96411027 -0.62153384 -4.02098277 -0.791013 0 0 Z " fill="#5C94CA" transform="translate(12,0)"/>
<path d="M0 0 C0.33 0.66 0.66 1.32 1 2 C1.99 2 2.98 2 4 2 C4.33 2.99 4.66 3.98 5 5 C7.97 5 10.94 5 14 5 C13.34 6.32 12.68 7.64 12 9 C4.71910112 9.48539326 4.71910112 9.48539326 1.5 7.3125 C-0.24633224 4.62023779 -0.34982212 3.14839906 0 0 Z " fill="#4586C6" transform="translate(0,7)"/>
<path d="M0 0 C2.64 0 5.28 0 8 0 C8.625 2.3125 8.625 2.3125 9 5 C8.01 6.485 8.01 6.485 7 8 C6.34 7.34 5.68 6.68 5 6 C5 5.01 5 4.02 5 3 C4.34 3 3.68 3 3 3 C3 4.32 3 5.64 3 7 C2.34 7 1.68 7 1 7 C0.67 4.69 0.34 2.38 0 0 Z " fill="#B2C8DD" transform="translate(4,4)"/>
<path d="M0 0 C3.875 0.875 3.875 0.875 5 2 C5.14115161 4.67058851 5.04247107 7.32432238 5 10 C3.68 10.33 2.36 10.66 1 11 C0.875 3.25 0.875 3.25 2 1 C1.34 0.67 0.68 0.34 0 0 Z " fill="#5792CA" transform="translate(11,2)"/>
<path d="M0 0 C0.33 0 0.66 0 1 0 C1 1.98 1 3.96 1 6 C1.66 6 2.32 6 3 6 C3 4.68 3 3.36 3 2 C3.66 2 4.32 2 5 2 C5.66 3.65 6.32 5.3 7 7 C1.25 8.125 1.25 8.125 -1 7 C-0.67 4.69 -0.34 2.38 0 0 Z " fill="#84A6C8" transform="translate(4,5)"/>
<path d="M0 0 C0.33 0.66 0.66 1.32 1 2 C1.99 2 2.98 2 4 2 C4.33 2.99 4.66 3.98 5 5 C5.33 5.66 5.66 6.32 6 7 C5.34 7.66 4.68 8.32 4 9 C0.06153846 5.67692308 0.06153846 5.67692308 -0.25 2.25 C-0.1675 1.5075 -0.085 0.765 0 0 Z " fill="#347CBE" transform="translate(0,7)"/>
<path d="M0 0 C0.99 0.33 1.98 0.66 3 1 C2.34 1 1.68 1 1 1 C1.185625 1.61875 1.37125 2.2375 1.5625 2.875 C2 5 2 5 1 7 C0.34 7 -0.32 7 -1 7 C-1.625 4.625 -1.625 4.625 -2 2 C-1.34 1.34 -0.68 0.68 0 0 Z " fill="#4988C5" transform="translate(2,2)"/>
<path d="M0 0 C1.32 0.33 2.64 0.66 4 1 C4.33 2.65 4.66 4.3 5 6 C3.68 5.67 2.36 5.34 1 5 C1.33 3.68 1.66 2.36 2 1 C1.34 0.67 0.68 0.34 0 0 Z " fill="#498AC8" transform="translate(11,2)"/>
</svg>
