<?xml version="1.0" encoding="UTF-8"?>
<svg version="1.1" xmlns="http://www.w3.org/2000/svg" width="24" height="24">
<path d="M0 0 C3.12578143 1.6720747 5.39281175 3.7856235 7 7 C7.51512617 11.09157355 7.94367269 15.23589546 5.953125 18.95703125 C3.55501226 21.85592636 1.60351712 23.79811835 -2.171875 24.2734375 C-9.98876369 24.58137554 -9.98876369 24.58137554 -13.5625 21.625 C-17.3057723 17.59378368 -17.39037018 14.90519941 -17.359375 9.55078125 C-16.78039966 5.44131496 -15.00085071 3.78650423 -12 1 C-8.27533151 -0.86233425 -4.05504687 -0.57130829 0 0 Z " fill="#508DC7" transform="translate(17,0)"/>
<path d="M0 0 C1.125 3.75 1.125 3.75 0 6 C1.32 6 2.64 6 4 6 C4 6.66 4 7.32 4 8 C3.01 8 2.02 8 1 8 C1 9.98 1 11.96 1 14 C0.46375 13.67 -0.0725 13.34 -0.625 13 C-3.6161026 11.74058838 -5.77729983 11.73144165 -9 12 C-11.30230766 12.89831016 -11.30230766 12.89831016 -13 14 C-12.505 13.2575 -12.505 13.2575 -12 12.5 C-10.56363642 8.90909106 -10.87148538 5.85543873 -11 2 C-9.01432292 2.06510417 -7.02864583 2.13020833 -5.04296875 2.1953125 C-2.68640281 2.13254462 -2.68640281 2.13254462 0 0 Z " fill="#DEE6EF" transform="translate(18,5)"/>
<path d="M0 0 C0.99 0 1.98 0 3 0 C3.144375 0.639375 3.28875 1.27875 3.4375 1.9375 C3.81007181 3.97545146 3.81007181 3.97545146 5 5 C4.34 6.65 3.68 8.3 3 10 C1.35 8.35 -0.3 6.7 -2 5 C-1.34 3.35 -0.68 1.7 0 0 Z " fill="#397EBF" transform="translate(3,13)"/>
<path d="M0 0 C1.125 3.75 1.125 3.75 0 6 C1.32 6 2.64 6 4 6 C4 6.66 4 7.32 4 8 C3.01 8 2.02 8 1 8 C1 9.98 1 11.96 1 14 C0.34 13.67 -0.32 13.34 -1 13 C-1.484375 11.07421875 -1.484375 11.07421875 -1.75 8.6875 C-1.84796875 7.90761719 -1.9459375 7.12773437 -2.046875 6.32421875 C-1.99392264 3.69866432 -1.32990442 2.23526243 0 0 Z " fill="#8DACCB" transform="translate(18,5)"/>
<path d="M0 0 C1.32 0.66 2.64 1.32 4 2 C3.34 3.32 2.68 4.64 2 6 C0.68 5.34 -0.64 4.68 -2 4 C-1.34 2.68 -0.68 1.36 0 0 Z " fill="#5289BE" transform="translate(11,9)"/>
<path d="M0 0 C0.66 0 1.32 0 2 0 C2 1.98 2 3.96 2 6 C1.34 6 0.68 6 0 6 C0 5.34 0 4.68 0 4 C-1.32 4 -2.64 4 -4 4 C-4 3.34 -4 2.68 -4 2 C-2.68 2 -1.36 2 0 2 C0 1.34 0 0.68 0 0 Z " fill="#90AAC5" transform="translate(6,9)"/>
</svg>
