<?xml version="1.0" encoding="UTF-8"?>
<svg version="1.1" xmlns="http://www.w3.org/2000/svg" width="256" height="256">
<path d="M0 0 C0.70787659 0.00215515 1.41575317 0.0043103 2.14508057 0.00653076 C12.46529218 0.05697852 22.25394223 0.42670066 32.25 3.3125 C32.93562012 3.50054199 33.62124023 3.68858398 34.32763672 3.88232422 C66.24302637 12.7874618 94.29166395 33.76940847 111.25 62.3125 C122.85133123 83.16914231 128.69340173 104.17188366 128.5625 128.0625 C128.56034485 128.77037659 128.5581897 129.47825317 128.55596924 130.20758057 C128.50552148 140.52779218 128.13579934 150.31644223 125.25 160.3125 C125.06195801 160.99812012 124.87391602 161.68374023 124.68017578 162.39013672 C115.7750382 194.30552637 94.79309153 222.35416395 66.25 239.3125 C45.39335769 250.91383123 24.39061634 256.75590173 0.5 256.625 C-0.20787659 256.62284485 -0.91575317 256.6206897 -1.64508057 256.61846924 C-11.96529218 256.56802148 -21.75394223 256.19829934 -31.75 253.3125 C-32.43562012 253.12445801 -33.12124023 252.93641602 -33.82763672 252.74267578 C-65.74302637 243.8375382 -93.79166395 222.85559153 -110.75 194.3125 C-122.35133123 173.45585769 -128.19340173 152.45311634 -128.0625 128.5625 C-128.06034485 127.85462341 -128.0581897 127.14674683 -128.05596924 126.41741943 C-128.00552148 116.09720782 -127.63579934 106.30855777 -124.75 96.3125 C-124.46793701 95.28406982 -124.46793701 95.28406982 -124.18017578 94.23486328 C-115.2750382 62.31947363 -94.29309153 34.27083605 -65.75 17.3125 C-44.89335769 5.71116877 -23.89061634 -0.13090173 0 0 Z " fill="#4788C6" transform="translate(127.75,-0.3125)"/>
<path d="M0 0 C4.71629468 0.5019176 7.27529033 2.44707953 10.9375 5.375 C11.50251221 5.82198242 12.06752441 6.26896484 12.6496582 6.72949219 C13.84293076 7.67437863 15.03323283 8.62302722 16.22070312 9.57519531 C19.02607682 11.82164988 21.85862547 14.03327135 24.6875 16.25 C27.89388258 18.7668133 31.09902814 21.28501913 34.29199219 23.81884766 C36.71139509 25.73864435 39.13663902 27.65087344 41.5625 29.5625 C42.32457764 30.17061523 43.08665527 30.77873047 43.87182617 31.40527344 C48.97100782 35.59134416 48.97100782 35.59134416 55 38 C57.15158072 37.36757402 57.15158072 37.36757402 59.25 36.125 C67.24486978 32.61155947 77.01544004 32.55268294 85.36328125 34.9765625 C88.25 36.125 88.25 36.125 90.703125 37.3203125 C93.00073538 38.20548975 93.00073538 38.20548975 95.375 37.44921875 C98.80893859 35.55339849 101.74601711 33.18491173 104.75 30.6875 C106.0858918 29.59730472 107.42318509 28.508825 108.76171875 27.421875 C109.45571777 26.85791016 110.1497168 26.29394531 110.86474609 25.71289062 C115.08029245 22.3311992 119.39348316 19.07637314 123.70507812 15.81860352 C127.1959277 13.17361981 130.64091048 10.49616625 134.01171875 7.69921875 C134.64327881 7.18109619 135.27483887 6.66297363 135.92553711 6.12915039 C137.11000883 5.15263088 138.28472209 4.16410694 139.44750977 3.16186523 C142.10364851 0.98578576 143.38838925 -0.04463105 146.890625 0.2109375 C147.58671875 0.47132812 148.2828125 0.73171875 149 1 C148.4980824 5.71629468 146.55292047 8.27529033 143.625 11.9375 C143.17801758 12.50251221 142.73103516 13.06752441 142.27050781 13.6496582 C141.32562137 14.84293076 140.37697278 16.03323283 139.42480469 17.22070312 C137.17835012 20.02607682 134.96672865 22.85862547 132.75 25.6875 C130.2331867 28.89388258 127.71498087 32.09902814 125.18115234 35.29199219 C123.26135565 37.71139509 121.34912656 40.13663902 119.4375 42.5625 C118.82938477 43.32457764 118.22126953 44.08665527 117.59472656 44.87182617 C113.40865584 49.97100782 113.40865584 49.97100782 111 56 C111.63242598 58.15158072 111.63242598 58.15158072 112.875 60.25 C116.38844053 68.24486978 116.44731706 78.01544004 114.0234375 86.36328125 C112.875 89.25 112.875 89.25 111.6796875 91.703125 C110.79592954 93.99844591 110.79592954 93.99844591 111.54296875 96.36328125 C113.48676527 99.88087549 115.87924555 102.8486357 118.4375 105.9375 C119.53178861 107.28211392 120.62552701 108.62717579 121.71875 109.97265625 C122.27046875 110.64828613 122.8221875 111.32391602 123.390625 112.02001953 C127.15851052 116.65557044 130.82488428 121.37043476 134.49365234 126.08447266 C136.18200416 128.23144322 137.89764461 130.35524929 139.61328125 132.48046875 C140.82597842 134.0074492 142.03822482 135.53478777 143.25 137.0625 C143.83579834 137.77712402 144.42159668 138.49174805 145.02514648 139.22802734 C149.03146502 144.32962021 149.03146502 144.32962021 148.859375 147.99609375 C148.57578125 148.65738281 148.2921875 149.31867188 148 150 C144.28418652 149.4572136 142.01634079 148.59135558 139.07421875 146.26953125 C138.35943359 145.71330078 137.64464844 145.15707031 136.90820312 144.58398438 C136.17537109 143.99939453 135.44253906 143.41480469 134.6875 142.8125 C133.23334631 141.67282816 131.77892023 140.5335038 130.32421875 139.39453125 C129.61442871 138.8320166 128.90463867 138.26950195 128.17333984 137.68994141 C125.31986651 135.47114311 122.39024581 133.36276 119.44458008 131.26831055 C118.96786865 130.84976807 118.49115723 130.43122559 118 130 C118 129.34 118 128.68 118 128 C117.29875 127.77054687 116.5975 127.54109375 115.875 127.3046875 C112.43665799 125.74435295 109.82025913 123.58020021 107 121.125 C101.02304132 114.94291386 101.02304132 114.94291386 93.75 112.0625 C91.14799491 112.90718251 91.14799491 112.90718251 89.28125 113.75 C80.95881073 117.07897571 70.45919214 117.68861968 61.85546875 115.02734375 C59.25 113.875 59.25 113.875 57.078125 112.6796875 C54.98318421 111.79945712 54.98318421 111.79945712 52.703125 112.5078125 C48.93192666 114.58960118 45.78847449 117.23287866 42.5 120 C41.06622164 121.18624778 39.63131165 122.37112904 38.1953125 123.5546875 C37.48536133 124.14088867 36.77541016 124.72708984 36.04394531 125.33105469 C33.19834951 127.65457271 30.29763228 129.89961779 27.375 132.125 C22.06762565 136.17187294 16.81108624 140.27785716 11.57958984 144.42236328 C4.51677145 150 4.51677145 150 0 150 C-0.875 147.984375 -0.875 147.984375 -1 145 C0.65846267 142.13567039 2.82448222 139.73343183 5 137.25 C6.21538845 135.81165801 7.43023731 134.37285988 8.64453125 132.93359375 C9.23057129 132.24894043 9.81661133 131.56428711 10.42041016 130.85888672 C12.23676592 128.72137006 13.97752802 126.53587761 15.6875 124.3125 C16.20828125 123.63703125 16.7290625 122.9615625 17.265625 122.265625 C17.83796875 121.51796875 18.4103125 120.7703125 19 120 C20.21173457 118.41912775 21.42354557 116.83831344 22.63671875 115.25854492 C23.49818479 114.13530832 24.35759078 113.01048851 25.21484375 111.8840332 C28.54902482 107.52074432 32.06650072 103.33818171 35.69921875 99.21875 C37.24809051 97.06013922 37.24809051 97.06013922 36.8046875 94.453125 C36.10624654 92.32389722 35.31773851 90.30814223 34.4375 88.25 C31.51104832 79.60103143 31.4230697 68.62012715 35.125 60.25 C35.51945312 59.53328125 35.91390625 58.8165625 36.3203125 58.078125 C37.20810392 55.97335978 37.20810392 55.97335978 36.44921875 53.65625 C34.56439097 50.20157914 32.19254745 47.26316743 29.6875 44.25 C28.59730472 42.9141082 27.508825 41.57681491 26.421875 40.23828125 C25.85791016 39.54428223 25.29394531 38.8502832 24.71289062 38.13525391 C21.3311992 33.91970755 18.07637314 29.60651684 14.81860352 25.29492188 C12.17361981 21.8040723 9.49616625 18.35908952 6.69921875 14.98828125 C6.18109619 14.35672119 5.66297363 13.72516113 5.12915039 13.07446289 C4.15263088 11.88999117 3.16410694 10.71527791 2.16186523 9.55249023 C-0.01421424 6.89635149 -1.04463105 5.61161075 -0.7890625 2.109375 C-0.52867188 1.41328125 -0.26828125 0.7171875 0 0 Z " fill="#FCFCFD" transform="translate(54,53)"/>
<path d="M0 0 C7.196877 5.28880819 12.23494824 11.02765358 14 20 C14.87039023 28.69071454 13.53270251 35.08569601 8.421875 42.1953125 C3.32239552 48.42035277 -3.36320909 53.34237439 -11.578125 54.30078125 C-22.46647637 54.34853718 -28.85925591 52.00324321 -36.828125 44.41796875 C-42.51070732 38.09149671 -44.34168238 31.24194539 -44.19921875 22.90234375 C-43.54559446 13.37993493 -39.01596122 7.31209456 -32 1 C-22.19334977 -5.53776682 -10.06811711 -6.28796325 0 0 Z " fill="#4681BA" transform="translate(143,103)"/>
<path d="M0 0 C3.91074735 3.76115592 7.3382752 7.73486474 10.6875 12 C11.17283203 12.60328125 11.65816406 13.2065625 12.15820312 13.828125 C17.06732578 20.05763237 17.06732578 20.05763237 18 24 C17.3203125 26.078125 17.3203125 26.078125 16.125 28.25 C12.17464096 37.23908231 12.56976702 48.2338282 16.0625 57.3125 C16.44535156 58.13363281 16.82820313 58.95476562 17.22265625 59.80078125 C18.15656653 62.44294952 17.89399229 63.38227498 17 66 C15.84838867 67.73583984 15.84838867 67.73583984 14.41796875 69.4609375 C13.89783203 70.09773438 13.37769531 70.73453125 12.84179688 71.390625 C12.29587891 72.04546875 11.74996094 72.7003125 11.1875 73.375 C7.5423583 77.78962276 4.08589034 82.17315942 1 87 C-2.38185979 83.07341111 -4.76726046 79.04339816 -7.0625 74.4375 C-7.41248047 73.73657227 -7.76246094 73.03564453 -8.12304688 72.31347656 C-11.57700198 65.16814759 -14 57.99835305 -14 50 C-15.8871875 49.92652344 -15.8871875 49.92652344 -17.8125 49.8515625 C-48.44350962 48.55649038 -48.44350962 48.55649038 -52 45 C-51.67028521 41.70285207 -51.3773161 40.3773161 -49 38 C-46.3137207 37.58935547 -46.3137207 37.58935547 -42.92578125 37.3671875 C-41.70052734 37.28339844 -40.47527344 37.19960937 -39.21289062 37.11328125 C-37.92576172 37.03464844 -36.63863281 36.95601562 -35.3125 36.875 C-34.04470703 36.78863281 -32.77691406 36.70226562 -31.47070312 36.61328125 C-25.63313875 36.2283869 -19.85225962 35.95637837 -14 36 C-13.98582031 35.42894531 -13.97164062 34.85789063 -13.95703125 34.26953125 C-13.28636142 22.86814408 -8.2400667 8.2400667 0 0 Z " fill="#CDCCCD" transform="translate(74,85)"/>
<path d="M0 0 C9.36117523 8.62213508 12.72018644 20.9070759 15 33 C15 33.99 15 34.98 15 36 C15.92296875 36.04898438 16.8459375 36.09796875 17.796875 36.1484375 C25.83563898 36.60915717 33.85709963 37.19499418 41.875 37.9375 C42.74866211 38.01210449 43.62232422 38.08670898 44.52246094 38.16357422 C45.3374707 38.24236816 46.15248047 38.32116211 46.9921875 38.40234375 C47.71776855 38.46929443 48.44334961 38.53624512 49.19091797 38.60522461 C51 39 51 39 53 41 C52.67028521 44.29714793 52.3773161 45.6226839 50 48 C47.3137207 48.41064453 47.3137207 48.41064453 43.92578125 48.6328125 C42.70052734 48.71660156 41.47527344 48.80039063 40.21289062 48.88671875 C38.92576172 48.96535156 37.63863281 49.04398438 36.3125 49.125 C35.04470703 49.21136719 33.77691406 49.29773438 32.47070312 49.38671875 C26.63313875 49.7716131 20.85225962 50.04362163 15 50 C14.896875 51.27875 14.79375 52.5575 14.6875 53.875 C13.32890523 65.50457122 8.81688201 77.97760626 0 86 C-0.72445312 85.0821875 -1.44890625 84.164375 -2.1953125 83.21875 C-2.89503174 82.33268066 -2.89503174 82.33268066 -3.60888672 81.42871094 C-4.62293382 80.13869932 -5.63235665 78.84503975 -6.63720703 77.54785156 C-8.74674334 74.82785833 -10.83910921 72.17478064 -13.171875 69.640625 C-14.8589109 67.76786038 -16.0868717 66.35142365 -17 64 C-16.61274704 60.37291242 -15.45760115 57.32238642 -14 54 C-11.43167991 46.29503972 -11.79862631 35.65314144 -15.125 28.25 C-15.51945313 27.53328125 -15.91390625 26.8165625 -16.3203125 26.078125 C-17 24 -17 24 -16.48828125 21.70703125 C-14.41467611 17.93535576 -11.79954238 14.74733603 -9.0625 11.4375 C-7.99043772 10.12406321 -6.91881015 8.81027146 -5.84765625 7.49609375 C-5.35023926 6.88878418 -4.85282227 6.28147461 -4.34033203 5.65576172 C-2.84330856 3.80643328 -1.40320467 1.92146144 0 0 Z " fill="#CBCACC" transform="translate(181,85)"/>
<path d="M0 0 C1.40738917 0.62024762 2.80485142 1.26390197 4.1875 1.9375 C13.24310541 4.95603514 24.48383412 3.68002554 32.98828125 -0.28515625 C35.63810164 -1.22177127 36.56284296 -0.9691997 39.1875 -0.0625 C41.03100586 1.1809082 41.03100586 1.1809082 42.90234375 2.73828125 C43.58876953 3.30353516 44.27519531 3.86878906 44.98242188 4.45117188 C45.68947266 5.04478516 46.39652344 5.63839844 47.125 6.25 C48.52990454 7.41281283 49.93485148 8.57557443 51.33984375 9.73828125 C51.99968262 10.28822754 52.65952148 10.83817383 53.33935547 11.40478516 C55.59877292 13.27857945 57.887123 15.11430492 60.1875 16.9375 C41.00881398 28.19926293 21.32546679 35.46413623 -1.3359375 30.03125 C-10.57973932 27.05798591 -20.09107114 23.12247568 -26.8125 15.9375 C-25.8946875 15.21304688 -24.976875 14.48859375 -24.03125 13.7421875 C-23.44045654 13.27570801 -22.84966309 12.80922852 -22.2409668 12.32861328 C-20.95152187 11.31488332 -19.65868195 10.30545743 -18.36254883 9.30029297 C-15.63878946 7.18597176 -12.97336703 5.08340876 -10.41796875 2.765625 C-6.67817372 -0.55525205 -4.91612928 -1.58356087 0 0 Z " fill="#C8C7C8" transform="translate(111.8125,165.0625)"/>
<path d="M0 0 C1.00659668 0.01087646 2.01319336 0.02175293 3.05029297 0.03295898 C18.97692302 0.37327159 30.56060098 5.51613032 43.625 14.375 C39.86384408 18.28574735 35.89013526 21.7132752 31.625 25.0625 C31.02171875 25.54783203 30.4184375 26.03316406 29.796875 26.53320312 C23.54509337 31.45987887 23.54509337 31.45987887 19.625 32.375 C17.328125 31.6953125 17.328125 31.6953125 14.875 30.5 C6.71534679 27.25380508 -3.07533787 26.72504292 -11.51171875 29.3515625 C-14.08646829 30.43684503 -14.08646829 30.43684503 -16.296875 31.6953125 C-18.375 32.375 -18.375 32.375 -20.703125 31.82421875 C-24.23147959 29.91044748 -27.25346171 27.57373753 -30.375 25.0625 C-30.97828125 24.58876953 -31.5815625 24.11503906 -32.203125 23.62695312 C-35.83566507 20.74066313 -39.15896758 17.7189428 -42.375 14.375 C-28.93088164 5.42900722 -16.40752116 -0.24255079 0 0 Z " fill="#C9C8C9" transform="translate(127.375,59.625)"/>
<path d="M0 0 C0.66 0 1.32 0 2 0 C5.26557121 3.32777257 7.9156253 6.82587851 10 11 C9.85412025 14.50632396 8.67592742 16.96435788 7 20 C3.98146486 29.05560541 5.25747446 40.29633412 9.22265625 48.80078125 C10.16778574 51.47469032 10.11554165 52.40536964 9 55 C7.71103058 56.79856198 6.34965442 58.54644864 4.9375 60.25 C4.20402344 61.14203125 3.47054687 62.0340625 2.71484375 62.953125 C2.14894531 63.62859375 1.58304688 64.3040625 1 65 C-9.16703577 52.77792508 -10.98848563 39.56991546 -10.19970703 24.13427734 C-9.46437781 16.27578342 -5.72250261 5.72250261 0 0 Z " fill="#447FB9" transform="translate(82,96)"/>
<path d="M0 0 C0.7734375 0.29261719 1.546875 0.58523437 2.34375 0.88671875 C3.50390625 1.31404297 3.50390625 1.31404297 4.6875 1.75 C5.3990625 2.02199219 6.110625 2.29398438 6.84375 2.57421875 C15.89935541 5.59275389 27.14008412 4.31674429 35.64453125 0.3515625 C38.29739928 -0.58612975 39.26583572 -0.51121884 41.84375 0.57421875 C44.203125 2.203125 44.203125 2.203125 46.59375 4.13671875 C47.39296875 4.77738281 48.1921875 5.41804687 49.015625 6.078125 C49.61890625 6.57183594 50.2221875 7.06554687 50.84375 7.57421875 C49.82669598 10.295994 49.10610326 11.41343628 46.59375 12.953125 C43.691741 14.20214308 40.7825414 15.41416951 37.84375 16.57421875 C37.0909375 16.8990625 36.338125 17.22390625 35.5625 17.55859375 C23.4362022 22.08460631 8.44378747 20.82740419 -3.15625 15.57421875 C-3.95933594 15.22746094 -4.76242188 14.88070312 -5.58984375 14.5234375 C-9.09955653 12.90308882 -10.9786713 11.84058681 -13.15625 8.57421875 C-11.88738036 7.44700439 -10.61607438 6.32253217 -9.34375 5.19921875 C-8.63605469 4.57273438 -7.92835937 3.94625 -7.19921875 3.30078125 C-2.66975373 -0.52717963 -2.66975373 -0.52717963 0 0 Z " fill="#447EB7" transform="translate(109.15625,164.42578125)"/>
<path d="M0 0 C1.5390625 1.24609375 1.5390625 1.24609375 2.5390625 4.24609375 C-6.40112494 12.31945694 -6.40112494 12.31945694 -11.3125 12.14453125 C-13.8254113 11.35137046 -16.10123142 10.41273948 -18.4609375 9.24609375 C-26.16589778 6.67777366 -36.80779606 7.04472006 -44.2109375 10.37109375 C-44.92765625 10.76554687 -45.644375 11.16 -46.3828125 11.56640625 C-48.4609375 12.24609375 -48.4609375 12.24609375 -50.95703125 11.55859375 C-53.44041677 10.25685033 -55.56411701 8.84361481 -57.7734375 7.12109375 C-58.47082031 6.58226563 -59.16820313 6.0434375 -59.88671875 5.48828125 C-60.40621094 5.07835938 -60.92570312 4.6684375 -61.4609375 4.24609375 C-59.6147656 -0.47970498 -56.6427397 -1.541294 -52.21484375 -3.58203125 C-51.30605469 -3.96875 -50.39726563 -4.35546875 -49.4609375 -4.75390625 C-48.70683594 -5.07875 -47.95273438 -5.40359375 -47.17578125 -5.73828125 C-32.00629687 -11.25445739 -13.68776397 -7.81791762 0 0 Z " fill="#4883BB" transform="translate(157.4609375,79.75390625)"/>
<path d="M0 0 C4.63495174 1.85004443 5.79342724 4.59554408 7.828125 8.97265625 C13.97525678 24.85274668 13.68687591 40.52982222 7 56 C5.48191109 58.85564833 3.88374864 61.36275191 2 64 C-2.09418048 61.07558537 -6.25975768 57.85436015 -8 53 C-7.55430302 49.42355354 -6.37865063 46.31339563 -5 43 C-2.43167991 35.29503972 -2.79862631 24.65314144 -6.125 17.25 C-6.51945313 16.53328125 -6.91390625 15.8165625 -7.3203125 15.078125 C-8 13 -8 13 -7.3125 10.50390625 C-6.01075658 8.02052073 -4.59752106 5.89682049 -2.875 3.6875 C-2.33617187 2.99011719 -1.79734375 2.29273437 -1.2421875 1.57421875 C-0.62730469 0.79498047 -0.62730469 0.79498047 0 0 Z " fill="#4781B8" transform="translate(172,96)"/>
<path d="M0 0 C0.66 0.33 1.32 0.66 2 1 C1.66226563 1.71285156 1.32453125 2.42570312 0.9765625 3.16015625 C0.30753906 4.59681641 0.30753906 4.59681641 -0.375 6.0625 C-0.81585938 7.00222656 -1.25671875 7.94195312 -1.7109375 8.91015625 C-4.42279589 15.41039863 -5.29892001 20.98840977 -5.1875 27.9375 C-5.18685547 28.69740234 -5.18621094 29.45730469 -5.18554688 30.24023438 C-5.1471576 35.23510515 -4.70317518 40.0552721 -4 45 C-5.485 45.495 -5.485 45.495 -7 46 C-7.0990984 40.96465764 -7.1715758 35.92988658 -7.21972656 30.89379883 C-7.23980505 29.18178414 -7.26707392 27.46983772 -7.30175781 25.75805664 C-7.35044401 23.29295992 -7.37300573 20.8287721 -7.390625 18.36328125 C-7.41127014 17.60163162 -7.43191528 16.83998199 -7.45318604 16.05525208 C-7.45530565 11.00135595 -6.49421641 8.60837173 -3 5 C-1.9731657 3.3497306 -0.96432076 1.68756133 0 0 Z " fill="#BEBDC0" transform="translate(78,99)"/>
<path d="M0 0 C0.71873795 -0.00570007 1.43747589 -0.01140015 2.17799377 -0.01727295 C3.69685398 -0.02670923 5.21573453 -0.03325148 6.73461914 -0.03710938 C9.05456251 -0.0468254 11.37362344 -0.07786421 13.69335938 -0.109375 C15.17056767 -0.11590454 16.64778228 -0.12115521 18.125 -0.125 C18.81677841 -0.1373468 19.50855682 -0.1496936 20.22129822 -0.16241455 C23.32433465 -0.148103 25.3727651 0.05835067 28.09790039 1.59863281 C29.62890625 3.203125 29.62890625 3.203125 29.62890625 5.203125 C28.40880859 4.87828125 28.40880859 4.87828125 27.1640625 4.546875 C13.8435788 1.31040202 0.71259367 0.4556963 -12.37109375 5.203125 C-11.55859375 3.265625 -11.55859375 3.265625 -10.37109375 1.203125 C-6.85705657 0.03177927 -3.6582404 0.0224085 0 0 Z " fill="#BCBDC1" transform="translate(119.37109375,70.796875)"/>
<path d="M0 0 C0.33 0 0.66 0 1 0 C1.02700675 2.91672884 1.04684237 5.83320677 1.0625 8.75 C1.07087891 9.575 1.07925781 10.4 1.08789062 11.25 C1.09111328 12.04921875 1.09433594 12.8484375 1.09765625 13.671875 C1.10289307 14.4050293 1.10812988 15.13818359 1.11352539 15.89355469 C0.99709991 18.05381075 0.57168402 19.91867069 0 22 C-0.12246094 22.80824219 -0.24492187 23.61648437 -0.37109375 24.44921875 C-1.10285218 27.41715823 -2.31238158 29.31765033 -4.0625 31.8125 C-4.61035156 32.60269531 -5.15820312 33.39289063 -5.72265625 34.20703125 C-6.14417969 34.79871094 -6.56570312 35.39039063 -7 36 C-7.33 35.34 -7.66 34.68 -8 34 C-7.07421875 31.42578125 -7.07421875 31.42578125 -5.6875 28.3125 C-2.53454093 21.20253212 -0.78884016 14.85648961 -0.375 7.0625 C-0.33632812 6.37865234 -0.29765625 5.69480469 -0.2578125 4.99023438 C-0.16477588 3.32720487 -0.08136213 1.66364153 0 0 Z " fill="#B8BABF" transform="translate(184,122)"/>
<path d="M0 0 C0.99 0.99 1.98 1.98 3 3 C2.46375 3.0825 1.9275 3.165 1.375 3.25 C-1.18601321 3.93320488 -1.18601321 3.93320488 -3.75 5.875 C-7.24267045 8.15866914 -10.83373717 10.30843411 -15 11 C-17.2421875 10.0703125 -17.2421875 10.0703125 -19 9 C-18.13117188 8.68546875 -17.26234375 8.3709375 -16.3671875 8.046875 C-7.73479565 4.85833881 -7.73479565 4.85833881 0 0 Z " fill="#B4B7BE" transform="translate(160,173)"/>
<path d="M0 0 C0.66 0.33 1.32 0.66 2 1 C1.28972656 1.69867188 0.57945313 2.39734375 -0.15234375 3.1171875 C-1.07144531 4.02726562 -1.99054688 4.93734375 -2.9375 5.875 C-4.31228516 7.23238281 -4.31228516 7.23238281 -5.71484375 8.6171875 C-8.01187627 10.77682255 -8.01187627 10.77682255 -9 13 C-9.66 13 -10.32 13 -11 13 C-9.56179563 7.72658399 -5.9961885 4.50608991 -2 1 C-1.34 0.67 -0.68 0.34 0 0 Z " fill="#3F76AD" transform="translate(113,103)"/>
<path d="M0 0 C0.66 0.33 1.32 0.66 2 1 C0.90959673 3.00753698 -0.19773572 5.00588751 -1.3125 7 C-2.23482422 8.670625 -2.23482422 8.670625 -3.17578125 10.375 C-3.77777344 11.24125 -4.37976563 12.1075 -5 13 C-5.99 13 -6.98 13 -8 13 C-7.34 11.68 -6.68 10.36 -6 9 C-5.34 9 -4.68 9 -4 9 C-3.71125 8.2575 -3.4225 7.515 -3.125 6.75 C-2.17697356 4.43260203 -1.15154089 2.22082885 0 0 Z " fill="#B5B5B8" transform="translate(188,157)"/>
<path d="M0 0 C3.51705958 0.65271556 6.89325077 1.51393024 10.3125 2.5625 C11.19550781 2.83191406 12.07851562 3.10132813 12.98828125 3.37890625 C13.65214844 3.58386719 14.31601563 3.78882813 15 4 C14.01 4.66 13.02 5.32 12 6 C7.47950441 5.07915831 3.78702185 3.63943947 0 1 C0 0.67 0 0.34 0 0 Z " fill="#B2B5BB" transform="translate(101,178)"/>
<path d="M0 0 C2.01822917 0.06510417 4.03645833 0.13020833 6.0546875 0.1953125 C6.0546875 0.5253125 6.0546875 0.8553125 6.0546875 1.1953125 C3.7446875 1.1953125 1.4346875 1.1953125 -0.9453125 1.1953125 C-1.2753125 3.8353125 -1.6053125 6.4753125 -1.9453125 9.1953125 C-2.9353125 8.5353125 -3.9253125 7.8753125 -4.9453125 7.1953125 C-3.87057023 0.38861147 -3.87057023 0.38861147 0 0 Z " fill="#B1B9C5" transform="translate(26.9453125,122.8046875)"/>
<path d="M0 0 C0.33 0 0.66 0 1 0 C1 4.62 1 9.24 1 14 C0.67 14 0.34 14 0 14 C-0.66 10.04 -1.32 6.08 -2 2 C-1.34 2 -0.68 2 0 2 C0 1.34 0 0.68 0 0 Z " fill="#ADB5C0" transform="translate(183,108)"/>
<path d="M0 0 C0.66 0.33 1.32 0.66 2 1 C0.02 3.31 -1.96 5.62 -4 8 C-4.99 7.67 -5.98 7.34 -7 7 C-4.78071806 4.09197539 -3.07030857 2.04687238 0 0 Z " fill="#3A73AB" transform="translate(103,167)"/>
<path d="M0 0 C0.99 0.33 1.98 0.66 3 1 C3 1.66 3 2.32 3 3 C1.04072937 4.7143618 -0.95880212 6.38405168 -3 8 C-3.66 7.67 -4.32 7.34 -5 7 C-3.35 4.69 -1.7 2.38 0 0 Z " fill="#4179AF" transform="translate(172,96)"/>
<path d="M0 0 C0.99 0.99 1.98 1.98 3 3 C2.071875 3.185625 2.071875 3.185625 1.125 3.375 C-1.19120832 3.87197356 -1.19120832 3.87197356 -3 6 C-5.625 6.125 -5.625 6.125 -8 6 C-5.33333333 4 -2.66666667 2 0 0 Z " fill="#ADAFB5" transform="translate(160,173)"/>
</svg>
