<?xml version="1.0" encoding="UTF-8"?>
<svg version="1.1" xmlns="http://www.w3.org/2000/svg" width="32" height="32">
<path d="M0 0 C4.8846525 2.26787438 7.73212562 5.1153475 10 10 C10.75381535 15.5997712 10.77303575 20.33499991 8.375 25.5 C3.80134327 30.3143755 0.6912538 32.25156236 -6 32.5 C-12.6912538 32.25156236 -15.80134327 30.3143755 -20.375 25.5 C-22.77303575 20.33499991 -22.75381535 15.5997712 -22 10 C-17.52212837 0.3553534 -9.85292056 -1.32635469 0 0 Z " fill="#4989C6" transform="translate(22,0)"/>
<path d="M0 0 C3.875 1.875 3.875 1.875 5 3 C10.40227629 3.36015175 13.52118671 3.35910997 18 0 C17.67 2.64 17.34 5.28 17 8 C18.65 8 20.3 8 22 8 C22 8.66 22 9.32 22 10 C20.35 10 18.7 10 17 10 C16.67 10.99 16.34 11.98 16 13 C15.67 11.02 15.34 9.04 15 7 C14.82057837 10.94727588 14.90649311 13.5980513 17 17 C16.505 16.67 16.01 16.34 15.5 16 C11.78330061 14.51332025 9.0058044 14.68207902 5 15 C2.990755 16.33358994 2.990755 16.33358994 2 18 C1.34 17.67 0.68 17.34 0 17 C0.495 16.505 0.99 16.01 1.5 15.5 C3.73587506 11.77354157 3.41151261 9.32088243 3 5 C1.62493901 3.12109566 1.62493901 3.12109566 0 2 C0 1.34 0 0.68 0 0 Z " fill="#DBE5F0" transform="translate(7,7)"/>
<path d="M0 0 C0.66 0 1.32 0 2 0 C2 0.66 2 1.32 2 2 C3.98 2 5.96 2 8 2 C9.125 6.75 9.125 6.75 8 9 C7.34 9 6.68 9 6 9 C5.34 10.32 4.68 11.64 4 13 C0.47726246 8.48649253 -0.45732667 5.71658336 0 0 Z " fill="#387EBF" transform="translate(0,15)"/>
<path d="M0 0 C3.34861059 1.38563197 5.29014301 2.76027096 7 6 C6.6875 9.25 6.6875 9.25 6 12 C7.0725 11.7525 8.145 11.505 9.25 11.25 C13 11 13 11 15.4375 12.8125 C17 15 17 15 17 17 C16.505 16.67 16.01 16.34 15.5 16 C11.78330061 14.51332025 9.0058044 14.68207902 5 15 C2.990755 16.33358994 2.990755 16.33358994 2 18 C1.34 17.67 0.68 17.34 0 17 C0.495 16.505 0.99 16.01 1.5 15.5 C3.73587506 11.77354157 3.41151261 9.32088243 3 5 C1.62493901 3.12109566 1.62493901 3.12109566 0 2 C0 1.34 0 0.68 0 0 Z " fill="#E5EDF4" transform="translate(7,7)"/>
<path d="M0 0 C0.66 0.33 1.32 0.66 2 1 C2 3.64 2 6.28 2 9 C1.01 9 0.02 9 -1 9 C-1 8.01 -1 7.02 -1 6 C-2.65 6 -4.3 6 -6 6 C-6 5.34 -6 4.68 -6 4 C-4.35 4 -2.7 4 -1 4 C-0.67 2.68 -0.34 1.36 0 0 Z " fill="#96AEC6" transform="translate(9,11)"/>
<path d="M0 0 C1.66611905 -0.042721 3.33382885 -0.04063832 5 0 C6 1 6 1 6.0625 3.5625 C6.041875 4.366875 6.02125 5.17125 6 6 C4.02 6 2.04 6 0 6 C0 4.02 0 2.04 0 0 Z " fill="#427FB9" transform="translate(13,13)"/>
<path d="M0 0 C2.05078125 0.03255208 4.1015625 0.06510417 6.15234375 0.09765625 C6.15234375 1.08765625 6.15234375 2.07765625 6.15234375 3.09765625 C3.33984375 3.78515625 3.33984375 3.78515625 0.15234375 4.09765625 C-1.72265625 2.66015625 -1.72265625 2.66015625 -2.84765625 1.09765625 C-1.84765625 0.09765625 -1.84765625 0.09765625 0 0 Z " fill="#89A5C1" transform="translate(13.84765625,20.90234375)"/>
<path d="M0 0 C0 0.99 0 1.98 0 3 C-2.64 3 -5.28 3 -8 3 C-8 2.01 -8 1.02 -8 0 C-5.13822943 -1.43088528 -3.06624227 -0.59991697 0 0 Z " fill="#8DA8C4" transform="translate(20,8)"/>
<path d="M0 0 C3.33355357 1.37940148 5.36343728 2.72687457 7 6 C6.1875 9.25 6.1875 9.25 5 12 C4.67 12 4.34 12 4 12 C3.896875 10.906875 3.79375 9.81375 3.6875 8.6875 C3.00272798 5.01463192 2.72080696 4.24762314 0 2 C0 1.34 0 0.68 0 0 Z " fill="#DDE7F1" transform="translate(7,7)"/>
<path d="M0 0 C0.66 0.33 1.32 0.66 2 1 C2 1.99 2 2.98 2 4 C3.65 4 5.3 4 7 4 C7 4.66 7 5.32 7 6 C5.35 6 3.7 6 2 6 C1.67 6.99 1.34 7.98 1 9 C0.63877119 7.68942607 0.28619689 6.37646376 -0.0625 5.0625 C-0.35833984 3.96615234 -0.35833984 3.96615234 -0.66015625 2.84765625 C-0.77230469 2.23792969 -0.88445313 1.62820313 -1 1 C-0.67 0.67 -0.34 0.34 0 0 Z " fill="#BEC4CC" transform="translate(22,11)"/>
</svg>
