<?xml version="1.0" encoding="UTF-8"?>
<svg version="1.1" xmlns="http://www.w3.org/2000/svg" width="48" height="48">
<path d="M0 0 C5.82485779 3.51996782 10.54466582 8.98962934 12.5625 15.5 C13.36764105 23.33608208 13.68710392 31.11922577 8.5625 37.5 C3.75801361 42.54521222 -0.59927055 46.10562995 -7.70703125 46.8359375 C-16.22326573 46.92983204 -22.11345494 46.6177288 -28.40234375 40.62890625 C-34.7841668 33.72505269 -35.91792252 28.29832071 -35.7421875 18.9453125 C-35.04689797 11.08319245 -31.38995981 6.95041296 -25.53515625 1.9453125 C-18.47077988 -2.92213491 -7.84396301 -3.47595223 0 0 Z " fill="#4788C5" transform="translate(35.4375,1.5)"/>
<path d="M0 0 C2.54090383 1.12929059 4.1333971 2.1333971 6.125 4.125 C9.74643611 6.48680616 12.23002984 6.67901395 16.4921875 6.5390625 C20.12098368 5.75904089 22.09413161 3.94070948 24.625 1.3125 C26 0 26 0 28 0 C26.87070941 2.54090383 25.8666029 4.1333971 23.875 6.125 C21.51319384 9.74643611 21.32098605 12.23002984 21.4609375 16.4921875 C22.24095911 20.12098368 24.05929052 22.09413161 26.6875 24.625 C28 26 28 26 28 28 C25.45909617 26.87070941 23.8666029 25.8666029 21.875 23.875 C18.25356389 21.51319384 15.76997016 21.32098605 11.5078125 21.4609375 C7.87901632 22.24095911 5.90586839 24.05929052 3.375 26.6875 C2 28 2 28 0 28 C1.12929059 25.45909617 2.1333971 23.8666029 4.125 21.875 C6.48680616 18.25356389 6.67901395 15.76997016 6.5390625 11.5078125 C5.75904089 7.87901632 3.94070948 5.90586839 1.3125 3.375 C0 2 0 2 0 0 Z " fill="#EDF2F7" transform="translate(10,10)"/>
<path d="M0 0 C3 0.25 3 0.25 5 2.25 C5.25 5.25 5.25 5.25 5 8.25 C3 10.25 3 10.25 0 10.5 C-3 10.25 -3 10.25 -5 8.25 C-5.25 5.25 -5.25 5.25 -5 2.25 C-3 0.25 -3 0.25 0 0 Z " fill="#4582BC" transform="translate(24,18.75)"/>
<path d="M0 0 C1.32 0.66 2.64 1.32 4 2 C4 5.3 4 8.6 4 12 C2.02 12.99 2.02 12.99 0 14 C-0.66 12.02 -1.32 10.04 -2 8 C-4.31 8 -6.62 8 -9 8 C-9 7.34 -9 6.68 -9 6 C-5.535 5.505 -5.535 5.505 -2 5 C-1.34 3.35 -0.68 1.7 0 0 Z " fill="#D4D3D3" transform="translate(13,17)"/>
<path d="M0 0 C0.99 0.33 1.98 0.66 3 1 C3 2.65 3 4.3 3 6 C5.64 6 8.28 6 11 6 C11 6.66 11 7.32 11 8 C8.36 8 5.72 8 3 8 C2.67 9.98 2.34 11.96 2 14 C0.68 13.34 -0.64 12.68 -2 12 C-2.05395478 10.37536158 -2.09277195 8.75021459 -2.125 7.125 C-2.14820312 6.22007813 -2.17140625 5.31515625 -2.1953125 4.3828125 C-2 2 -2 2 0 0 Z " fill="#D8D5D3" transform="translate(33,17)"/>
<path d="M0 0 C0.66 1.32 1.32 2.64 2 4 C-1.65528875 6.3393848 -4.73523211 6.29928196 -9 6 C-11.9375 5 -11.9375 5 -14 4 C-10.36515075 -1.28705346 -5.79646176 -0.3982302 0 0 Z " fill="#B9BFC7" transform="translate(29,31)"/>
<path d="M0 0 C2.4375 1 2.4375 1 4 2 C3.34 3.32 2.68 4.64 2 6 C-1.3 6 -4.6 6 -8 6 C-8.66 4.68 -9.32 3.36 -10 2 C-6.29873141 -0.46751239 -4.37776468 -0.30721156 0 0 Z " fill="#BFC3C9" transform="translate(27,11)"/>
<path d="M0 0 C0.94875 0.04125 1.8975 0.0825 2.875 0.125 C2.875 1.115 2.875 2.105 2.875 3.125 C1.225 3.455 -0.425 3.785 -2.125 4.125 C-2.125 5.775 -2.125 7.425 -2.125 9.125 C-3.115 8.795 -4.105 8.465 -5.125 8.125 C-5.25 5.25 -5.25 5.25 -5.125 2.125 C-3.125 0.125 -3.125 0.125 0 0 Z " fill="#3E7AB2" transform="translate(24.125,18.875)"/>
<path d="M0 0 C3.3 0 6.6 0 10 0 C10.33 0.66 10.66 1.32 11 2 C8.59454362 3.20272819 7.05003047 3.10071472 4.375 3.0625 C3.14910156 3.04896484 3.14910156 3.04896484 1.8984375 3.03515625 C0.95871094 3.01775391 0.95871094 3.01775391 0 3 C0 2.01 0 1.02 0 0 Z " fill="#427CB5" transform="translate(19,31)"/>
<path d="M0 0 C0.66 0.33 1.32 0.66 2 1 C2.05399736 2.45792884 2.09279177 3.91642712 2.125 5.375 C2.14820313 6.18710937 2.17140625 6.99921875 2.1953125 7.8359375 C2 10 2 10 0 12 C-1.17661508 8.32307787 -1.14475933 4.8361222 -1 1 C-0.67 0.67 -0.34 0.34 0 0 Z " fill="#447EB6" transform="translate(32,18)"/>
<path d="M0 0 C0.66 0.33 1.32 0.66 2 1 C2 4.3 2 7.6 2 11 C1.01 11.495 1.01 11.495 0 12 C-1.1898306 9.6203388 -1.13349966 8.08514265 -1.125 5.4375 C-1.12886719 4.22900391 -1.12886719 4.22900391 -1.1328125 2.99609375 C-1 1 -1 1 0 0 Z " fill="#407CB6" transform="translate(15,18)"/>
<path d="M0 0 C1.45792884 -0.05399736 2.91642712 -0.09279177 4.375 -0.125 C5.18710937 -0.14820313 5.99921875 -0.17140625 6.8359375 -0.1953125 C9 0 9 0 11 2 C7.32589215 3.17571451 3.83070817 3.07366746 0 3 C0 2.01 0 1.02 0 0 Z " fill="#4580B9" transform="translate(19,14)"/>
<path d="M0 0 C0.66 0 1.32 0 2 0 C2 4.62 2 9.24 2 14 C1.01 13.67 0.02 13.34 -1 13 C-1.02686553 11.02090602 -1.04633375 9.04171029 -1.0625 7.0625 C-1.07410156 5.96035156 -1.08570313 4.85820312 -1.09765625 3.72265625 C-1 1 -1 1 0 0 Z " fill="#B6BCC4" transform="translate(13,17)"/>
<path d="M0 0 C0.99 0.33 1.98 0.66 3 1 C3.02696365 2.79158489 3.04637917 4.58328473 3.0625 6.375 C3.07410156 7.37273438 3.08570313 8.37046875 3.09765625 9.3984375 C3 12 3 12 2 14 C1.34 14 0.68 14 0 14 C0 9.38 0 4.76 0 0 Z " fill="#B6BBC3" transform="translate(33,17)"/>
<path d="M0 0 C0.99 0 1.98 0 3 0 C3 1.65 3 3.3 3 5 C2.01 5.33 1.02 5.66 0 6 C0 4.02 0 2.04 0 0 Z " fill="#DAE5F0" transform="translate(29,21)"/>
</svg>
