<?xml version="1.0" encoding="UTF-8"?>
<svg version="1.1" xmlns="http://www.w3.org/2000/svg" width="512" height="512">
<path d="M0 0 C0.9355925 -0.00974854 1.871185 -0.01949707 2.83512878 -0.02954102 C23.24416486 -0.1984297 42.96079539 -0.03089418 63.0078125 4.23828125 C63.93158691 4.42551758 64.85536133 4.61275391 65.80712891 4.80566406 C101.4803425 12.13655694 136.04867954 27.05718327 165.0078125 49.23828125 C165.5857959 49.67495117 166.1637793 50.11162109 166.75927734 50.56152344 C175.26586251 57.002323 183.31244993 63.84319145 191.0078125 71.23828125 C191.60239258 71.80562988 192.19697266 72.37297852 192.80957031 72.95751953 C201.15799553 80.96365501 208.80764092 89.18319073 215.69726562 98.47900391 C217.02578341 100.26240538 218.38141287 102.02237641 219.7421875 103.78125 C227.10148221 113.40694237 233.21551204 123.60687263 239.0078125 134.23828125 C239.3697168 134.89876465 239.73162109 135.55924805 240.10449219 136.23974609 C257.60985188 168.57859478 268.92626162 206.31643928 269.24609375 243.23046875 C269.25584229 244.16606125 269.26559082 245.10165375 269.27563477 246.06559753 C269.44452345 266.47463361 269.27698793 286.19126414 265.0078125 306.23828125 C264.82057617 307.16205566 264.63333984 308.08583008 264.44042969 309.03759766 C257.10953681 344.71081125 242.18891048 379.27914829 220.0078125 408.23828125 C219.57114258 408.81626465 219.13447266 409.39424805 218.68457031 409.98974609 C212.24377075 418.49633126 205.4029023 426.54291868 198.0078125 434.23828125 C197.44046387 434.83286133 196.87311523 435.42744141 196.28857422 436.04003906 C188.28243874 444.38846428 180.06290302 452.03810967 170.76708984 458.92773438 C168.98368837 460.25625216 167.22371734 461.61188162 165.46484375 462.97265625 C155.83915138 470.33195096 145.63922112 476.44598079 135.0078125 482.23828125 C134.3473291 482.60018555 133.6868457 482.96208984 133.00634766 483.33496094 C100.66749897 500.84032063 62.92965447 512.15673037 26.015625 512.4765625 C25.0800325 512.48631104 24.14444 512.49605957 23.18049622 512.50610352 C2.77146014 512.6749922 -16.94517039 512.50745668 -36.9921875 508.23828125 C-37.91596191 508.05104492 -38.83973633 507.86380859 -39.79150391 507.67089844 C-75.4647175 500.34000556 -110.03305454 485.41937923 -138.9921875 463.23828125 C-139.5701709 462.80161133 -140.1481543 462.36494141 -140.74365234 461.91503906 C-149.25023751 455.4742395 -157.29682493 448.63337105 -164.9921875 441.23828125 C-165.58676758 440.67093262 -166.18134766 440.10358398 -166.79394531 439.51904297 C-175.14237053 431.51290749 -182.79201592 423.29337177 -189.68164062 413.99755859 C-191.01015841 412.21415712 -192.36578787 410.45418609 -193.7265625 408.6953125 C-201.08585721 399.06962013 -207.19988704 388.86968987 -212.9921875 378.23828125 C-213.3540918 377.57779785 -213.71599609 376.91731445 -214.08886719 376.23681641 C-231.59422688 343.89796772 -242.91063662 306.16012322 -243.23046875 269.24609375 C-243.24021729 268.31050125 -243.24996582 267.37490875 -243.26000977 266.41096497 C-243.42889845 246.00192889 -243.26136293 226.28529836 -238.9921875 206.23828125 C-238.80495117 205.31450684 -238.61771484 204.39073242 -238.42480469 203.43896484 C-231.09391181 167.76575125 -216.17328548 133.19741421 -193.9921875 104.23828125 C-193.55551758 103.66029785 -193.11884766 103.08231445 -192.66894531 102.48681641 C-186.22814575 93.98023124 -179.3872773 85.93364382 -171.9921875 78.23828125 C-171.42483887 77.64370117 -170.85749023 77.04912109 -170.27294922 76.43652344 C-162.26681374 68.08809822 -154.04727802 60.43845283 -144.75146484 53.54882812 C-142.96806337 52.22031034 -141.20809234 50.86468088 -139.44921875 49.50390625 C-129.82352638 42.14461154 -119.62359612 36.03058171 -108.9921875 30.23828125 C-108.3317041 29.87637695 -107.6712207 29.51447266 -106.99072266 29.14160156 C-74.65187397 11.63624187 -36.91402947 0.31983213 0 0 Z " fill="#4788C6" transform="translate(242.9921875,-0.23828125)"/>
<path d="M0 0 C2.9375 1.80078125 2.9375 1.80078125 6 4.3125 C6.84075073 4.98974121 6.84075073 4.98974121 7.69848633 5.68066406 C8.88239154 6.63462573 10.06177357 7.59422518 11.23681641 8.55908203 C14.01948136 10.8331458 16.8562039 13.03704232 19.6875 15.25 C20.85958045 16.17291622 22.0314492 17.09610136 23.203125 18.01953125 C27.43222791 21.34575425 31.68595373 24.64005153 35.9375 27.9375 C41.59895484 32.33060691 47.22739782 36.76022995 52.8125 41.25 C58.31131525 45.66938613 63.8650027 50.00302806 69.46875 54.2890625 C74.524464 58.16021095 79.53925804 62.08435644 84.55786133 66.00341797 C85.99513619 67.12381967 87.43622699 68.23934578 88.88134766 69.34960938 C90.32239261 70.47215649 91.74357299 71.62057468 93.14599609 72.79101562 C96.9440663 76.07050282 96.9440663 76.07050282 101.66015625 77.0234375 C102.43230469 76.68570313 103.20445312 76.34796875 104 76 C104.86496094 75.64164062 105.72992188 75.28328125 106.62109375 74.9140625 C107.55050781 74.48867187 108.47992188 74.06328125 109.4375 73.625 C120.04541617 69.18896233 129.8521558 67.74579855 141.25 67.6875 C142.16056152 67.68194092 143.07112305 67.67638184 144.00927734 67.6706543 C153.35108846 67.76971102 161.67214824 69.57752986 170.3125 73.0625 C172.8652211 74.07726139 175.42133591 75.04996586 178 76 C178.85078125 76.32355469 179.7015625 76.64710938 180.578125 76.98046875 C184.42612666 77.01150102 186.65423981 74.63772363 189.4375 72.25 C190.69110587 71.21968649 191.94502039 70.18974843 193.19921875 69.16015625 C193.8339209 68.6305127 194.46862305 68.10086914 195.12255859 67.55517578 C197.95446124 65.20937346 200.85105154 62.94947864 203.75 60.6875 C204.91157737 59.77489107 206.07303224 58.86212622 207.234375 57.94921875 C212.25256022 54.01383446 217.29100899 50.10449836 222.32714844 46.19213867 C226.89551015 42.64161106 231.45416413 39.07931469 236 35.5 C242.08152945 30.71150602 248.18997344 25.95815032 254.30395508 21.21118164 C257.88187664 18.43159173 261.45510723 15.64666874 265.01171875 12.83984375 C265.63498047 12.34806641 266.25824219 11.85628906 266.90039062 11.34960938 C268.04216705 10.44741883 269.18289881 9.54390358 270.32226562 8.63867188 C281.07324793 0.14257724 281.07324793 0.14257724 285.25 -0.5 C288 0 288 0 289.875 1.125 C291.5935399 3.98923317 291.41927256 5.67659182 291 9 C289.40628175 11.86731102 287.38175252 14.33752459 285.3125 16.875 C284.72670166 17.6167749 284.14090332 18.3585498 283.53735352 19.12280273 C281.70823884 21.42918407 279.85818121 23.71699298 278 26 C277.43958008 26.69013184 276.87916016 27.38026367 276.30175781 28.09130859 C274.14193729 30.74761737 271.9796721 33.40182167 269.80786133 36.04833984 C265.55467823 41.25086563 261.52204888 46.59417047 257.52368164 51.99365234 C253.40479062 57.52750197 249.08704258 62.87840923 244.71484375 68.21313477 C240.15131336 73.78827508 235.73533155 79.45848283 231.37451172 85.19433594 C229.78611037 87.28098183 228.19214338 89.36331348 226.59765625 91.4453125 C222.43997077 96.86505336 222.43997077 96.86505336 218.30908203 102.30517578 C217.277963 103.64013071 216.17938596 104.9229844 215.05859375 106.18359375 C213.77347309 107.9982723 213.77347309 107.9982723 214.1640625 110.41015625 C215.06210583 113.19241199 216.15822699 115.77903533 217.375 118.4375 C221.81103767 129.04541617 223.25420145 138.8521558 223.3125 150.25 C223.32083862 151.61584229 223.32083862 151.61584229 223.3293457 153.00927734 C223.23028898 162.35108846 221.42247014 170.67214824 217.9375 179.3125 C216.92273861 181.8652211 215.95003414 184.42133591 215 187 C214.66484375 187.83917969 214.3296875 188.67835938 213.984375 189.54296875 C214.01025964 193.61332763 216.7651124 196.07090187 219.3125 199 C220.43344204 200.34148751 221.55321593 201.6839519 222.671875 203.02734375 C223.23583984 203.69620605 223.79980469 204.36506836 224.38085938 205.05419922 C226.69006143 207.8292807 228.88106457 210.68664837 231.0625 213.5625 C236.30902848 220.42714619 241.65233421 227.21403572 247 234 C253.62825106 242.41539872 260.22672134 250.85310664 266.796875 259.31396484 C269.99681062 263.4325633 273.2075333 267.54198545 276.44042969 271.63476562 C277.77946577 273.33310178 279.11106714 275.03703459 280.44140625 276.7421875 C282.17169546 278.95860242 283.93302234 281.14516862 285.71484375 283.3203125 C286.56038014 284.37982202 287.40545376 285.43970106 288.25 286.5 C288.99765625 287.4178125 289.7453125 288.335625 290.515625 289.28125 C292 292 292 292 291.921875 295.21875 C291 298 291 298 288 300 C284.04198376 300.5859633 282.39342784 300.24971456 278.984375 298.0859375 C277.89465187 297.19631241 276.81719309 296.29153053 275.75 295.375 C274.51650299 294.36091027 273.28208141 293.3479444 272.046875 292.3359375 C271.39396484 291.79420898 270.74105469 291.25248047 270.06835938 290.69433594 C266.43810543 287.72054434 262.71367824 284.86837134 259 282 C253.09271589 277.41385356 247.20087382 272.80886969 241.32592773 268.18139648 C236.58829349 264.45329966 231.82602807 260.757423 227.0625 257.0625 C221.45898433 252.71602432 215.89492165 248.32707092 210.375 243.875 C203.24415202 238.12910062 195.95948184 232.59083753 188.56884766 227.18310547 C187 226 187 226 184.85546875 224.09765625 C183.01806824 222.77379719 183.01806824 222.77379719 180.6328125 223.1640625 C176.58017865 224.45080381 172.67921797 226.04809843 168.7421875 227.6484375 C159.76552056 230.89053224 151.75085333 232.50863975 142.1875 232.375 C141.13723633 232.36557373 140.08697266 232.35614746 139.00488281 232.34643555 C127.30285284 232.11986894 117.32529749 229.98522631 106.62109375 225.0859375 C105.75613281 224.72757813 104.89117187 224.36921875 104 224 C103.21882813 223.66484375 102.43765625 223.3296875 101.6328125 222.984375 C97.20056611 223.01067913 94.65061267 226.04861182 91.4375 228.875 C90.00152084 230.09164105 88.56401048 231.30647707 87.125 232.51953125 C86.06925781 233.41792725 86.06925781 233.41792725 84.9921875 234.33447266 C82.37776964 236.52020289 79.68343634 238.54408756 76.9375 240.5625 C72.39501761 243.92319835 67.96302393 247.39486613 63.5625 250.9375 C58.46042183 255.04378348 53.32418883 259.0918661 48.12304688 263.07226562 C43.41940165 266.67251645 38.73794846 270.30071316 34.0625 273.9375 C32.91225342 274.83178711 32.91225342 274.83178711 31.73876953 275.74414062 C27.58379805 278.97784217 23.44085503 282.22587131 19.31225586 285.49316406 C17.07473386 287.2602039 14.82849331 289.01582083 12.57861328 290.76708984 C11.0137353 291.98927261 9.45798425 293.22311211 7.90234375 294.45703125 C6.94457031 295.19308594 5.98679687 295.92914063 5 296.6875 C3.7625 297.65236328 3.7625 297.65236328 2.5 298.63671875 C-0.56659824 300.3089731 -2.555112 300.37850647 -6 300 C-7.9375 298.375 -7.9375 298.375 -9 296 C-8.730868 290.7220225 -6.61099319 287.66034758 -3.3125 283.75 C-2.30767148 282.51637564 -1.30381292 281.28196077 -0.30078125 280.046875 C0.23466309 279.39396484 0.77010742 278.74105469 1.32177734 278.06835938 C4.27620176 274.42711939 7.13173752 270.70920459 10 267 C13.37375815 262.65249241 16.75100515 258.30811812 20.16015625 253.98828125 C20.65193359 253.36501953 21.14371094 252.74175781 21.65039062 252.09960938 C22.55258117 250.95783295 23.45609642 249.81710119 24.36132812 248.67773438 C26.57158515 245.88086885 28.66720705 243.04274817 30.68359375 240.10546875 C31.44800781 239.08066406 32.21242187 238.05585938 33 237 C33.66 237 34.32 237 35 237 C35.20625 236.3296875 35.4125 235.659375 35.625 234.96875 C37.49105632 230.93976476 40.15405924 227.88196758 43 224.5 C44.18237293 223.07145634 45.36334638 221.64175328 46.54296875 220.2109375 C47.12868652 219.50163086 47.7144043 218.79232422 48.31787109 218.06152344 C51.54377388 214.10803678 54.61878004 210.04275739 57.6953125 205.97265625 C59.22270984 204.00257256 60.8013507 202.07110312 62.4296875 200.18359375 C63.17476563 199.31863281 63.91984375 198.45367187 64.6875 197.5625 C65.68330078 196.45068359 65.68330078 196.45068359 66.69921875 195.31640625 C68.51735214 192.07870926 67.98698198 190.54534317 67 187 C65.82390237 183.7220136 64.56968216 180.49882808 63.25976562 177.2734375 C59.73297697 168.27706347 58.66912834 159.6237277 58.75 150 C58.73839844 148.61941406 58.73839844 148.61941406 58.7265625 147.2109375 C58.7594994 135.51833913 61.41730016 123.91831694 66.8125 113.5 C68.19868209 110.58172192 68.03090799 109.95489451 67 107 C66.00801236 105.2932466 66.00801236 105.2932466 64.734375 103.671875 C64.26298096 103.04506836 63.79158691 102.41826172 63.3059082 101.77246094 C62.7924585 101.10504883 62.27900879 100.43763672 61.75 99.75 C61.21785889 99.04907227 60.68571777 98.34814453 60.13745117 97.62597656 C55.75830321 91.89620246 51.22432743 86.29797472 46.6496582 80.72387695 C42.72633099 75.93354213 38.98769629 71.03282026 35.3046875 66.0546875 C32.62390073 62.5015091 29.85352649 59.02928575 27.0625 55.5625 C22.88342119 50.37158874 18.76804598 45.14073138 14.72119141 39.84619141 C12.12199139 36.44883641 9.49464848 33.0757915 6.84326172 29.71899414 C5.00321131 27.3871345 3.17455764 25.04642458 1.34472656 22.70654297 C0.01084346 21.01376104 -1.34116356 19.33674519 -2.6953125 17.66015625 C-3.52665254 16.60725287 -4.35741021 15.55388933 -5.1875 14.5 C-5.92355469 13.5821875 -6.65960938 12.664375 -7.41796875 11.71875 C-9.27916833 8.52024406 -9.40535727 6.64308434 -9 3 C-6.76586429 -0.72355951 -4.05369832 -0.42286781 0 0 Z " fill="#FDFEFE" transform="translate(115,106)"/>
<path d="M0 0 C12.77103038 9.5477826 22.4211428 23.06706057 25 39 C26.22212035 55.42328847 22.8640029 70.4811786 12.859375 83.86328125 C5.2052082 92.68163076 -3.08250424 98.83732354 -14 103 C-14.84046875 103.32097656 -15.6809375 103.64195312 -16.546875 103.97265625 C-30.4162245 108.49070192 -45.66428104 106.85085812 -58.73828125 100.71484375 C-74.38158763 91.98086709 -84.84453717 78.36532124 -89.8125 61.3125 C-93.30422864 45.82046258 -90.70560188 31.34782913 -82.7578125 17.62890625 C-73.81582725 4.25567053 -60.79878554 -5.61354318 -45.11328125 -9.49609375 C-28.8167024 -12.13380852 -14.0372366 -8.49145848 0 0 Z " fill="#4681BA" transform="translate(289,208)"/>
<path d="M0 0 C4.47422984 4.09728007 7.64859345 8.62932719 10.875 13.75 C11.4002124 14.58257324 11.9254248 15.41514648 12.46655273 16.27294922 C17.31966144 24.17224558 20.86243025 32.297858 24 41 C24.33515625 41.91652344 24.6703125 42.83304688 25.015625 43.77734375 C27.48223064 50.85069815 29.02180321 57.85712419 30.05859375 65.26953125 C30.23575928 66.52999268 30.4129248 67.7904541 30.59545898 69.08911133 C30.72895752 70.04970459 30.86245605 71.01029785 31 72 C31.84080612 72.05597855 32.68161224 72.11195709 33.54789734 72.16963196 C41.47928607 72.70003389 49.40968512 73.24309458 57.33923626 73.80032063 C61.41574348 74.08633826 65.49246421 74.36748425 69.57006836 74.63745117 C73.50665315 74.89826254 77.44215364 75.17192996 81.37723732 75.45445824 C82.87718138 75.559892 84.37745643 75.66072324 85.87802696 75.75683022 C87.98314632 75.89245368 90.0864841 76.04453763 92.19018555 76.20043945 C93.38709518 76.28260208 94.58400482 76.36476471 95.81718445 76.44941711 C99.23793689 77.04115978 101.22832755 77.93638382 104 80 C106.34168764 83.51253146 106.49623677 84.86469356 106 89 C103.52839679 93.02779782 101.44105359 94.59297461 97 96 C94.21962472 96.35498321 91.50195196 96.62583289 88.7109375 96.81640625 C87.9021817 96.87756622 87.0934259 96.9387262 86.26016235 97.0017395 C83.63233058 97.19741008 81.00381193 97.38051038 78.375 97.5625 C76.57030254 97.69297751 74.76561508 97.82359344 72.9609375 97.9543457 C58.64989758 98.97060971 44.34392728 99.65621679 30 100 C29.94303955 100.71357666 29.8860791 101.42715332 29.82739258 102.16235352 C27.7044024 127.28968502 18.21604374 147.62719383 4 168 C3.34 168.99 2.68 169.98 2 171 C-2.17068966 169.46241856 -4.29440098 166.4333394 -6.875 163 C-7.84631667 161.73564827 -8.81767284 160.4713269 -9.7890625 159.20703125 C-10.30500977 158.52979004 -10.82095703 157.85254883 -11.35253906 157.15478516 C-13.69199774 154.09490633 -16.06176206 151.05897341 -18.43017578 148.02148438 C-20.72219789 145.08189069 -23.01301983 142.14156068 -25.28320312 139.18505859 C-26.49548821 137.64211896 -27.74272847 136.12633952 -29.01367188 134.63134766 C-29.66400391 133.85194824 -30.31433594 133.07254883 -30.984375 132.26953125 C-31.58475586 131.57061768 -32.18513672 130.8717041 -32.80371094 130.15161133 C-34 128 -34 128 -33.7722168 125.46044922 C-32.4769462 121.33343782 -30.8766602 117.33106265 -29.25976562 113.32226562 C-25.7944815 104.42259051 -24.62938431 95.76918125 -24.6875 86.25 C-24.69487183 84.80874756 -24.69487183 84.80874756 -24.70239258 83.33837891 C-24.88937457 71.91425841 -27.13533176 62.06189636 -31.9140625 51.62109375 C-33.90922318 46.80543615 -33.90922318 46.80543615 -34 44 C-32.64517986 41.75921883 -31.35973001 39.976217 -29.6875 38 C-28.75218576 36.84278597 -27.81730152 35.68522428 -26.8828125 34.52734375 C-26.16013184 33.64731689 -26.16013184 33.64731689 -25.42285156 32.74951172 C-23.24129668 30.06711256 -21.15584623 27.31386344 -19.0625 24.5625 C-14.9722397 19.23145671 -10.82882681 13.94293284 -6.66625977 8.66821289 C-4.40809386 5.80463609 -2.17093346 2.93040193 0 0 Z " fill="#CAC9CB" transform="translate(362,170)"/>
<path d="M0 0 C3.48704771 3.36448013 6.52101581 6.82075753 9.4375 10.6875 C10.30534557 11.83121812 11.17387657 12.97441637 12.04296875 14.1171875 C12.51138184 14.73432617 12.97979492 15.35146484 13.46240234 15.98730469 C16.93900394 20.53813091 20.47676072 25.0420123 24.00170898 29.55541992 C25.67300333 31.69963613 27.33699984 33.84934762 29 36 C29.5779834 36.73790771 30.1559668 37.47581543 30.75146484 38.23608398 C31.30012207 38.94708252 31.8487793 39.65808105 32.4140625 40.390625 C32.9085791 41.02645508 33.4030957 41.66228516 33.91259766 42.31738281 C35 44 35 44 35.125 46.4375 C34.46322905 47.94486717 33.79805789 49.45076364 33.125 50.953125 C32.795 51.69046875 32.465 52.4278125 32.125 53.1875 C31.59326172 54.34958984 31.59326172 54.34958984 31.05078125 55.53515625 C26.83708016 65.41933984 25.81975856 75.16418779 25.8125 85.8125 C25.80025391 86.74642578 25.78800781 87.68035156 25.77539062 88.64257812 C25.75560203 98.14769807 27.49624683 106.46886081 31.0625 115.25 C34.92010169 124.83387374 34.92010169 124.83387374 35 129 C33.33203125 131.6484375 33.33203125 131.6484375 30.8125 134.375 C29.87634177 135.4236443 28.94423598 136.47591653 28.015625 137.53125 C27.2740918 138.36849609 27.2740918 138.36849609 26.51757812 139.22265625 C23.87324283 142.31962551 21.47829321 145.5987603 19.0625 148.875 C15.0650869 154.26104274 11.01881832 159.60054771 6.875 164.875 C6.41359619 165.46394043 5.95219238 166.05288086 5.47680664 166.65966797 C3.72862241 168.87673278 1.99837639 171.00162361 0 173 C-1.66448417 170.38438202 -3.3287928 167.76865484 -4.9921875 165.15234375 C-6.28566671 163.12153105 -7.58230061 161.09272249 -8.8828125 159.06640625 C-9.77613281 157.67228516 -9.77613281 157.67228516 -10.6875 156.25 C-11.22761719 155.40953125 -11.76773438 154.5690625 -12.32421875 153.703125 C-15.90625944 147.92510133 -18.79628389 142.48244466 -21 136.0625 C-21.25418701 135.3288623 -21.50837402 134.59522461 -21.77026367 133.83935547 C-25.55769284 122.66015695 -28.12115107 111.78707339 -29 100 C-30.26779297 99.91959473 -31.53558594 99.83918945 -32.84179688 99.75634766 C-44.00241493 99.0464902 -55.16172115 98.31946307 -66.31980896 97.5708313 C-71.95283628 97.19482094 -77.58593549 96.84671358 -83.22265625 96.53125 C-85.33599307 96.39670335 -87.4492815 96.26139237 -89.5625 96.125 C-90.48546875 96.0832666 -91.4084375 96.0415332 -92.359375 95.99853516 C-96.62629201 95.69670866 -98.53900709 95.34530199 -102.05078125 92.71484375 C-104.02897967 89.95963753 -104.68296052 88.77022961 -104.625 85.4375 C-104.63789062 84.69371094 -104.65078125 83.94992188 -104.6640625 83.18359375 C-103.66493892 79.89824032 -101.82010153 78.88365937 -99 77 C-95.87533569 76.3291626 -95.87533569 76.3291626 -92.32958984 76.08691406 C-91.68018936 76.0375621 -91.03078888 75.98821014 -90.36170959 75.93736267 C-88.22895311 75.77957961 -86.09544361 75.64742766 -83.9609375 75.515625 C-82.4730042 75.41078787 -80.98518082 75.30437981 -79.49746704 75.19647217 C-75.59024834 74.9174333 -71.68188378 74.66027584 -67.77288818 74.40753174 C-63.79294466 74.14606524 -59.81455277 73.86286105 -55.8359375 73.58203125 C-50.02854443 73.17564421 -44.22075064 72.77633411 -38.41162109 72.39550781 C-37.24311615 72.31874817 -36.07461121 72.24198853 -34.87069702 72.16290283 C-32.9161892 72.05199079 -30.95765225 72 -29 72 C-28.97421875 71.40316406 -28.9484375 70.80632812 -28.921875 70.19140625 C-27.17282457 43.43888493 -15.68563134 21.14988816 0 0 Z " fill="#CCCBCC" transform="translate(149,170)"/>
<path d="M0 0 C1.74808533 1.60719317 3.36818887 3.27130954 5 5 C4.030625 5.71542969 3.06125 6.43085938 2.0625 7.16796875 C-5.16514276 12.53044274 -12.29075947 17.97989101 -19.25 23.6875 C-21.2126965 25.28851495 -23.17646573 26.88819634 -25.14111328 28.48681641 C-26.35720544 29.47674801 -27.57178804 30.46853767 -28.78466797 31.46240234 C-30.40680261 32.78278755 -32.0437942 34.08163036 -33.6875 35.375 C-34.59886719 36.10460937 -35.51023437 36.83421875 -36.44921875 37.5859375 C-39 39 -39 39 -41.3515625 38.91015625 C-45.51065103 37.48085296 -49.60039567 35.90430558 -53.67773438 34.25976562 C-62.57740949 30.7944815 -71.23081875 29.62938431 -80.75 29.6875 C-81.71083496 29.69241455 -82.67166992 29.6973291 -83.66162109 29.70239258 C-95.08574159 29.88937457 -104.93810364 32.13533176 -115.37890625 36.9140625 C-118.02779761 38.01151675 -120.14679632 38.71148284 -123 39 C-125.07714844 37.93945312 -125.07714844 37.93945312 -127.109375 36.28125 C-127.86476562 35.67796875 -128.62015625 35.0746875 -129.3984375 34.453125 C-130.56246094 33.48632812 -130.56246094 33.48632812 -131.75 32.5 C-132.51054687 31.88640625 -133.27109375 31.2728125 -134.0546875 30.640625 C-135.60250115 29.39188043 -137.14615869 28.13796826 -138.68579102 26.87915039 C-145.36037284 21.45935334 -152.22884988 16.27907253 -159.0625 11.0625 C-160.21782227 10.17981445 -160.21782227 10.17981445 -161.39648438 9.27929688 C-163.26405794 7.85251707 -165.13189836 6.42608827 -167 5 C-154.12311582 -8.64137452 -134.71805016 -16.79505721 -117 -22 C-116.25492188 -22.22300781 -115.50984375 -22.44601563 -114.7421875 -22.67578125 C-75.71698842 -33.37097179 -32.29718394 -23.51572739 0 0 Z " fill="#C8C7C9" transform="translate(337,145)"/>
<path d="M0 0 C2.66299387 1.03869584 5.27155673 2.13441678 7.87109375 3.32421875 C27.485536 11.50678535 49.67309143 11.71305651 69.43359375 3.94921875 C71.86193383 2.88247181 74.24214749 1.81318346 76.57421875 0.55078125 C79.27255622 -0.32221028 80.74939563 0.04244928 83.43359375 0.94921875 C86.125 2.91796875 86.125 2.91796875 88.99609375 5.44921875 C90.06167521 6.37095413 91.12944036 7.29017023 92.19921875 8.20703125 C92.73869141 8.67012695 93.27816406 9.13322266 93.83398438 9.61035156 C96.23084379 11.61651411 98.73149177 13.46885026 101.24609375 15.32421875 C106.07237952 18.89924525 110.803082 22.57591518 115.49609375 26.32421875 C116.46156128 27.09258057 116.46156128 27.09258057 117.4465332 27.87646484 C118.05198975 28.36195801 118.65744629 28.84745117 119.28125 29.34765625 C119.81758057 29.77739746 120.35391113 30.20713867 120.90649414 30.64990234 C122.50263297 32.00796003 123.97166865 33.44867056 125.43359375 34.94921875 C113.23943544 44.11832392 100.81165032 51.65625867 86.43359375 56.94921875 C85.61407227 57.26826172 84.79455078 57.58730469 83.95019531 57.91601562 C51.84203296 70.16702885 14.76945831 67.26170329 -16.48242188 53.89501953 C-26.91464941 49.16043079 -36.28911201 42.60667907 -45.56640625 35.94921875 C-44.02017125 31.65966359 -40.76599152 29.4695877 -37.25390625 26.82421875 C-36.31611328 26.10298828 -36.31611328 26.10298828 -35.359375 25.3671875 C-33.43343928 23.8877893 -31.50018001 22.41834896 -29.56640625 20.94921875 C-27.92445445 19.68965218 -26.2846929 18.42729922 -24.64575195 17.16381836 C-23.59319636 16.35434795 -22.53833905 15.54786166 -21.48120117 14.74438477 C-18.54001367 12.50320258 -15.65789996 10.21044587 -12.81640625 7.84375 C-12.19056641 7.33005859 -11.56472656 6.81636719 -10.91992188 6.28710938 C-9.71038936 5.29169853 -8.51058043 4.28431852 -7.32226562 3.26367188 C-3.2473508 -0.06425504 -3.2473508 -0.06425504 0 0 Z " fill="#C6C6C7" transform="translate(216.56640625,328.05078125)"/>
<path d="M0 0 C5.44105136 5.30502508 10.21668142 11.10501 15 17 C15.59167969 17.71285156 16.18335938 18.42570312 16.79296875 19.16015625 C18.67856762 21.56337049 19.98058417 23.26219847 20.0625 26.375 C18.81010768 29.46914572 17.43956444 32.50003372 16.05078125 35.53515625 C11.83708016 45.41933984 10.81975856 55.16418779 10.8125 65.8125 C10.79413086 67.21338867 10.79413086 67.21338867 10.77539062 68.64257812 C10.75560203 78.14769807 12.49624683 86.46886081 16.0625 95.25 C19.95003272 104.90823476 19.95003272 104.90823476 20 109 C18.15625 111.89453125 18.15625 111.89453125 15.5 114.8125 C14.56866603 115.85399878 13.63899007 116.89698244 12.7109375 117.94140625 C12.24913086 118.4533252 11.78732422 118.96524414 11.31152344 119.49267578 C8.8541421 122.31692604 6.72699332 125.39692404 4.5703125 128.453125 C3 130 3 130 -1 130 C-18.29084229 101.22113777 -25.40250479 69.84880966 -17.15234375 36.58203125 C-13.36017183 23.48598814 -7.03697874 11.61726075 0 0 Z " fill="#4480B9" transform="translate(164,190)"/>
<path d="M0 0 C4.26089735 1.48040086 5.86575895 4.48629473 7.9375 8.25 C8.45799927 9.17848755 8.45799927 9.17848755 8.98901367 10.12573242 C12.45159209 16.4994207 14.7785169 23.0981403 17 30 C17.44472656 31.23363281 17.44472656 31.23363281 17.8984375 32.4921875 C21.4271789 42.30977496 22.36549186 52.11827052 22.3125 62.5 C22.30621582 64.19697021 22.30621582 64.19697021 22.29980469 65.92822266 C21.99394355 88.94915399 16.3699413 111.50696103 2 130 C-1.92269195 128.69243602 -3.39171284 126.20594369 -5.75 123 C-6.63597964 121.81194846 -7.52270265 120.62445093 -8.41015625 119.4375 C-8.84602051 118.85226562 -9.28188477 118.26703125 -9.73095703 117.6640625 C-12.00664062 114.68001877 -14.46291826 111.83743985 -16.91796875 109 C-18 107 -18 107 -17.859375 104.73046875 C-16.5318693 100.51262108 -14.91265855 96.42031402 -13.25976562 92.32226562 C-9.7944815 83.42259051 -8.62938431 74.76918125 -8.6875 65.25 C-8.69487183 63.80874756 -8.69487183 63.80874756 -8.70239258 62.33837891 C-8.88937457 50.91425841 -11.13533176 41.06189636 -15.9140625 30.62109375 C-17.91892918 25.78200906 -17.91892918 25.78200906 -18 23 C-16.60368291 20.69894181 -15.27716771 18.84786843 -13.5625 16.8125 C-13.10891113 16.25022705 -12.65532227 15.6879541 -12.18798828 15.10864258 C-11.25708088 13.95698272 -10.31986639 12.81039289 -9.37646484 11.66894531 C-7.34198764 9.20216876 -5.36239452 6.69225934 -3.375 4.1875 C-2.25128646 2.7906308 -1.12682169 1.39436315 0 0 Z " fill="#4982B9" transform="translate(346,191)"/>
<path d="M0 0 C-1.3597823 3.17325097 -2.73588489 4.85234792 -5.51953125 6.875 C-6.21240234 7.38546875 -6.90527344 7.8959375 -7.61914062 8.421875 C-8.34294922 8.94265625 -9.06675781 9.4634375 -9.8125 10 C-11.23615783 11.04100953 -12.65934557 12.08266229 -14.08203125 13.125 C-14.76088379 13.61355469 -15.43973633 14.10210937 -16.13916016 14.60546875 C-18.19742029 16.10375871 -18.19742029 16.10375871 -20.69921875 18.4375 C-23 20 -23 20 -25.33203125 19.93359375 C-29.4907349 18.47835192 -33.59256104 16.90746557 -37.67773438 15.25976562 C-46.57740949 11.7944815 -55.23081875 10.62938431 -64.75 10.6875 C-65.71083496 10.69241455 -66.67166992 10.6973291 -67.66162109 10.70239258 C-79.08574159 10.88937457 -88.93810364 13.13533176 -99.37890625 17.9140625 C-102.03314465 19.01373206 -104.13977662 19.71899654 -107 20 C-109.140625 18.8918457 -109.140625 18.8918457 -111.25 17.17578125 C-112.0234375 16.55896484 -112.796875 15.94214844 -113.59375 15.30664062 C-114.3878125 14.64857422 -115.181875 13.99050781 -116 13.3125 C-116.7940625 12.67376953 -117.588125 12.03503906 -118.40625 11.37695312 C-120.61479565 9.59723342 -122.80815876 7.8002139 -125 6 C-126.66480053 4.66433733 -128.33038177 3.32963549 -130 2 C-128.65990037 -2.02029888 -126.15536618 -2.9482984 -122.625 -4.875 C-121.98651123 -5.22796143 -121.34802246 -5.58092285 -120.69018555 -5.94458008 C-118.80083272 -6.97752082 -116.90252237 -7.99156484 -115 -9 C-114.10667969 -9.48082031 -113.21335938 -9.96164063 -112.29296875 -10.45703125 C-106.52639533 -13.31761492 -100.57097657 -15.09067352 -94.375 -16.75 C-93.19321167 -17.06650513 -93.19321167 -17.06650513 -91.98754883 -17.3894043 C-60.24566515 -25.4631931 -26.72818097 -18.28185351 0 0 Z " fill="#4983BB" transform="translate(321,164)"/>
<path d="M0 0 C2.78722092 0.88703411 5.36767031 1.98189249 8.02734375 3.19921875 C27.641786 11.38178535 49.82934143 11.58805651 69.58984375 3.82421875 C72.01818383 2.75747181 74.39839749 1.68818346 76.73046875 0.42578125 C79.43557124 -0.44939897 80.89802523 -0.08907682 83.58984375 0.82421875 C86.38671875 2.86328125 86.38671875 2.86328125 89.33984375 5.44921875 C90.39087449 6.35668929 91.44296881 7.26292938 92.49609375 8.16796875 C93.01429688 8.6165625 93.5325 9.06515625 94.06640625 9.52734375 C97.46883762 12.42377251 101.03774067 15.11529166 104.58984375 17.82421875 C102.52034217 24.03272348 93.99322855 26.6999588 88.43676758 29.49072266 C82.21467901 32.50923753 75.93361681 34.82382916 69.27734375 36.69921875 C68.20323242 37.00388062 68.20323242 37.00388062 67.10742188 37.31469727 C51.00449672 41.57843008 31.76487911 41.42118466 15.58984375 37.82421875 C14.69910156 37.62957031 13.80835938 37.43492187 12.890625 37.234375 C-0.58545951 33.90961838 -12.61747719 27.98341066 -24.41015625 20.82421875 C-24.41015625 19.50421875 -24.41015625 18.18421875 -24.41015625 16.82421875 C-22.46230713 15.02689893 -20.61760419 13.53618078 -18.47265625 12.01171875 C-17.27547647 11.13488574 -16.07886438 10.25727714 -14.8828125 9.37890625 C-14.29129395 8.94932617 -13.69977539 8.51974609 -13.09033203 8.07714844 C-10.08052351 5.83269372 -7.24857447 3.36214702 -4.41015625 0.90625 C-2.41015625 -0.17578125 -2.41015625 -0.17578125 0 0 Z " fill="#447EB7" transform="translate(216.41015625,328.17578125)"/>
<path d="M0 0 C3.125 -0.1875 3.125 -0.1875 6 0 C6 0.99 6 1.98 6 3 C3.36 3 0.72 3 -2 3 C-1.34 2.01 -0.68 1.02 0 0 Z " fill="#C1C1C5" transform="translate(394,267)"/>
</svg>
