<?xml version="1.0" encoding="UTF-8"?>
<svg version="1.1" xmlns="http://www.w3.org/2000/svg" width="64" height="64">
<path d="M0 0 C8.04071716 5.46768767 14.35713546 11.78672485 16.953125 21.328125 C17.97008074 32.73931439 17.08780568 41.52074309 9.640625 50.578125 C3.75028057 56.89640044 -1.9995096 60.87830798 -10.81640625 61.6640625 C-22.23808647 61.92046185 -29.76998744 60.10045244 -38.2578125 52.1875 C-45.41707366 44.7468705 -47.46537447 37.63799487 -47.41040039 27.37304688 C-47.154444 17.46241552 -43.06295379 11.07888989 -36.046875 4.328125 C-26.55128048 -3.80505814 -11.27874483 -6.1129075 0 0 Z " fill="#4788C6" transform="translate(47.046875,2.671875)"/>
<path d="M0 0 C3.23345059 1.42906968 5.4114845 3.24238914 8 5.625 C12.57649114 9.18115869 16.15099515 10.13969256 21.921875 9.84375 C26.88729621 8.48267008 30.12190742 5.44203477 33.8203125 1.96875 C36 0 36 0 38 0 C36.57093032 3.23345059 34.75761086 5.4114845 32.375 8 C28.81884131 12.57649114 27.86030744 16.15099515 28.15625 21.921875 C29.51732992 26.88729621 32.55796523 30.12190742 36.03125 33.8203125 C38 36 38 36 38 38 C34.76654941 36.57093032 32.5885155 34.75761086 30 32.375 C25.42350886 28.81884131 21.84900485 27.86030744 16.078125 28.15625 C11.11270379 29.51732992 7.87809258 32.55796523 4.1796875 36.03125 C2 38 2 38 0 38 C1.42906968 34.76654941 3.24238914 32.5885155 5.625 30 C9.18115869 25.42350886 10.13969256 21.84900485 9.84375 16.078125 C8.48267008 11.11270379 5.44203477 7.87809258 1.96875 4.1796875 C0 2 0 2 0 0 Z " fill="#F3F7FA" transform="translate(13,13)"/>
<path d="M0 0 C2.375 1.625 2.375 1.625 4 4 C4.61195145 7.6717087 4.48706506 9.28813568 2.375 12.375 C-0.71186432 14.48706506 -2.3282913 14.61195145 -6 14 C-8.375 12.375 -8.375 12.375 -10 10 C-10.61195145 6.3282913 -10.48706506 4.71186432 -8.375 1.625 C-5.28813568 -0.48706506 -3.6717087 -0.61195145 0 0 Z " fill="#4883BD" transform="translate(35,25)"/>
<path d="M0 0 C3.37924455 2.36547118 4.76596794 3.69662143 5.5078125 7.828125 C5.7975 15.669 5.7975 15.669 3.8671875 18.890625 C2.5 20.25 2.5 20.25 0 22 C-3 15.375 -3 15.375 -3 12 C-5.97 12 -8.94 12 -12 12 C-12 11.34 -12 10.68 -12 10 C-7.545 9.505 -7.545 9.505 -3 9 C-2.87625 8.2575 -2.7525 7.515 -2.625 6.75 C-2.04513299 4.19858515 -1.26291261 2.2732427 0 0 Z " fill="#CDCBCC" transform="translate(18,21)"/>
<path d="M0 0 C2.50298434 2.93828597 3.46930939 5.17902761 4 9 C6.97 9.33 9.94 9.66 13 10 C13 10.66 13 11.32 13 12 C10.03 12 7.06 12 4 12 C3.8453125 13.36125 3.8453125 13.36125 3.6875 14.75 C2.99585051 18.01961575 2.17865079 19.53717737 0 22 C-2.70031721 19.63722245 -3.89446975 17.73465286 -4.40625 14.171875 C-4.55205261 9.23888671 -4.62711654 6.01906437 -2 1.75 C-1.01 0.88375 -1.01 0.88375 0 0 Z " fill="#CBCBCC" transform="translate(45,21)"/>
<path d="M0 0 C2.42492099 1.45294853 3.34953833 2.64219762 5 5 C-0.26972874 8.32824973 -4.93898061 8.76498303 -11 8 C-14.625 6.5 -14.625 6.5 -17 5 C-12.66439988 -1.19371445 -7.18343623 -1.28984352 0 0 Z " fill="#CDCDCF" transform="translate(38,41)"/>
<path d="M0 0 C1.65407264 0.70314829 3.26648122 1.50293057 4.8671875 2.3203125 C2.50171632 5.69955705 1.17056607 7.08628044 -2.9609375 7.828125 C-10.8018125 8.1178125 -10.8018125 8.1178125 -14.0234375 6.1875 C-15.3828125 4.8203125 -15.3828125 4.8203125 -17.1328125 2.3203125 C-11.60224592 -1.08311309 -6.22254502 -1.98300885 0 0 Z " fill="#CAC9CA" transform="translate(38.1328125,15.6796875)"/>
<path d="M0 0 C0.86625 -0.01675781 1.7325 -0.03351562 2.625 -0.05078125 C5.4116129 0.37546053 6.26608617 1.15081137 8 3.3125 C4.86376336 5.14318697 2.49454451 5.60879308 -1.125 5.625 C-2.42824219 5.65013672 -2.42824219 5.65013672 -3.7578125 5.67578125 C-4.49773438 5.55589844 -5.23765625 5.43601562 -6 5.3125 C-6.66 4.3225 -7.32 3.3325 -8 2.3125 C-4.78169935 0.16696623 -3.73213493 0.01666132 0 0 Z " fill="#548ABD" transform="translate(32,17.6875)"/>
<path d="M0 0 C1.99093137 1.64857544 2.91353305 2.53969062 3.3984375 5.12109375 C3.33462033 11.42835693 3.33462033 11.42835693 1.5 14.5625 C1.005 15.036875 0.51 15.51125 0 16 C-1.84586777 12.85030499 -2.27170838 10.51115326 -2.25 6.875 C-2.25773437 5.57175781 -2.25773437 5.57175781 -2.265625 4.2421875 C-2 2 -2 2 0 0 Z " fill="#4981B6" transform="translate(43,24)"/>
<path d="M0 0 C0.99 0.66 1.98 1.32 3 2 C3.3984375 4.75 3.3984375 4.75 3.375 8 C3.38273437 9.0725 3.39046875 10.145 3.3984375 11.25 C3.20121094 12.61125 3.20121094 12.61125 3 14 C2.01 14.66 1.02 15.32 0 16 C-1.70754834 13.02534237 -2.27317355 10.86139168 -2.25 7.4375 C-2.25773437 6.29087891 -2.25773437 6.29087891 -2.265625 5.12109375 C-2 3 -2 3 0 0 Z " fill="#5387BB" transform="translate(20,24)"/>
<path d="M0 0 C2.75 -0.3984375 2.75 -0.3984375 6 -0.375 C7.60875 -0.38660156 7.60875 -0.38660156 9.25 -0.3984375 C10.1575 -0.26695313 11.065 -0.13546875 12 0 C12.66 0.99 13.32 1.98 14 3 C10.34471125 5.3393848 7.26476789 5.29928196 3 5 C0.0625 4 0.0625 4 -2 3 C-1.34 2.01 -0.68 1.02 0 0 Z " fill="#427DB7" transform="translate(26,41)"/>
<path d="M0 0 C0.86625 0.37125 0.86625 0.37125 1.75 0.75 C0.5434375 1.8328125 0.5434375 1.8328125 -0.6875 2.9375 C-3.27292072 5.77515689 -3.93042813 7.02166147 -4.25 10.75 C-1.28 11.08 1.69 11.41 4.75 11.75 C4.42 12.41 4.09 13.07 3.75 13.75 C0.21322336 14.07152515 -1.6462104 14.1631192 -4.625 12.125 C-6.73706506 9.03813568 -6.86195145 7.4217087 -6.25 3.75 C-3.29485488 -0.36609499 -3.29485488 -0.36609499 0 0 Z " fill="#437DB4" transform="translate(31.25,25.25)"/>
<path d="M0 0 C0.66 0 1.32 0 2 0 C2 1.98 2 3.96 2 6 C-1.63 6 -5.26 6 -9 6 C-9 5.34 -9 4.68 -9 4 C-4.545 3.505 -4.545 3.505 0 3 C0 2.01 0 1.02 0 0 Z " fill="#CED0D3" transform="translate(15,27)"/>
<path d="M0 0 C0.66 0 1.32 0 2 0 C2.66 2.64 3.32 5.28 4 8 C3.01 8.66 2.02 9.32 1 10 C-0.60725635 6.78548731 -0.05748185 3.56387464 0 0 Z " fill="#3D7BB6" transform="translate(19,30)"/>
<path d="M0 0 C1.50433594 0.29197266 1.50433594 0.29197266 3.0390625 0.58984375 C4.19535156 0.82380859 4.19535156 0.82380859 5.375 1.0625 C5.375 1.3925 5.375 1.7225 5.375 2.0625 C-2.81756018 3.51545405 -2.81756018 3.51545405 -6.1875 1.625 C-6.661875 1.109375 -7.13625 0.59375 -7.625 0.0625 C-4.81015955 -1.34492022 -3.05563887 -0.60402164 0 0 Z " fill="#BEC0C4" transform="translate(28.625,44.9375)"/>
<path d="M0 0 C2 2 2 2 2.1953125 4.1640625 C2.16050781 5.38222656 2.16050781 5.38222656 2.125 6.625 C2.10695312 7.44226562 2.08890625 8.25953125 2.0703125 9.1015625 C2.04710937 9.72804688 2.02390625 10.35453125 2 11 C1.01 11.495 1.01 11.495 0 12 C-0.19401633 10.18818595 -0.38004375 8.37551468 -0.5625 6.5625 C-0.66691406 5.55316406 -0.77132812 4.54382813 -0.87890625 3.50390625 C-0.91886719 2.67761719 -0.95882812 1.85132812 -1 1 C-0.67 0.67 -0.34 0.34 0 0 Z " fill="#5289BD" transform="translate(44,25)"/>
<path d="M0 0 C1.5625 1.6875 1.5625 1.6875 3 4 C2.6875 6.75 2.6875 6.75 2 9 C0.4375 7.3125 0.4375 7.3125 -1 5 C-0.6875 2.25 -0.6875 2.25 0 0 Z " fill="#C5C5C7" transform="translate(17,34)"/>
<path d="M0 0 C-0.99 0.66 -1.98 1.32 -3 2 C-6.6875 1.125 -6.6875 1.125 -10 0 C-10 -0.33 -10 -0.66 -10 -1 C-5.92224809 -1.9267618 -3.57818963 -2.33958553 0 0 Z " fill="#4D83B7" transform="translate(40,43)"/>
<path d="M0 0 C-1.625 1.125 -1.625 1.125 -4 2 C-7.25 1.125 -7.25 1.125 -10 0 C-10 -0.33 -10 -0.66 -10 -1 C-3.375 -2.25 -3.375 -2.25 0 0 Z " fill="#457FB7" transform="translate(40,21)"/>
<path d="M0 0 C-3.75 3 -3.75 3 -6 3 C-6.33 2.01 -6.66 1.02 -7 0 C-4.3333581 -1.33332095 -2.83319697 -0.67102033 0 0 Z " fill="#BEBFC3" transform="translate(43,45)"/>
</svg>
