<?xml version="1.0" encoding="UTF-8"?>
<svg version="1.1" xmlns="http://www.w3.org/2000/svg" width="96" height="96">
<path d="M0 0 C0.85722656 0.43570312 1.71445313 0.87140625 2.59765625 1.3203125 C14.79398425 8.05312705 22.59307531 18.59365039 26.58300781 31.9519043 C28.75661627 42.62778328 28.09775288 55.35859782 23 65 C22.34644531 66.28583984 22.34644531 66.28583984 21.6796875 67.59765625 C14.94687295 79.79398425 4.40634961 87.59307531 -8.9519043 91.58300781 C-19.62778328 93.75661627 -32.35859782 93.09775288 -42 88 C-43.28583984 87.34644531 -43.28583984 87.34644531 -44.59765625 86.6796875 C-56.79398425 79.94687295 -64.59307531 69.40634961 -68.58300781 56.0480957 C-70.75661627 45.37221672 -70.09775288 32.64140218 -65 23 C-64.56429687 22.14277344 -64.12859375 21.28554688 -63.6796875 20.40234375 C-56.94687295 8.20601575 -46.40634961 0.40692469 -33.0480957 -3.58300781 C-22.37221672 -5.75661627 -9.64140218 -5.09775288 0 0 Z " fill="#4788C6" transform="translate(69,4)"/>
<path d="M0 0 C4.02796407 1.23593722 6.45954639 3.22990818 9.50195312 6.09130859 C15.98066062 11.98633184 21.48821403 14.50792185 30.29638672 14.328125 C37.85279208 13.60245092 42.70328645 9.66030183 48.08203125 4.6015625 C50.7561819 2.21737999 52.6199873 1.03712035 56 0 C54.76406722 4.02794959 52.77037116 6.4597132 49.90844727 9.50170898 C44.05470807 15.937001 41.45821614 21.46982856 41.59936523 30.22387695 C42.43097288 38.80551653 47.87268319 44.59693535 53.78491211 50.45458984 C55.20539024 52.26122568 55.59157559 53.75865391 56 56 C51.97205041 54.76406722 49.5402868 52.77037116 46.49829102 49.90844727 C40.062999 44.05470807 34.53017144 41.45821614 25.77612305 41.59936523 C17.19448347 42.43097288 11.40306465 47.87268319 5.54541016 53.78491211 C3.73877432 55.20539024 2.24134609 55.59157559 0 56 C1.23593722 51.97203593 3.22990818 49.54045361 6.09130859 46.49804688 C11.98633184 40.01933938 14.50792185 34.51178597 14.328125 25.70361328 C13.60245092 18.14720792 9.66030183 13.29671355 4.6015625 7.91796875 C2.21737999 5.2438181 1.03712035 3.3800127 0 0 Z " fill="#F8FAFC" transform="translate(20,20)"/>
<path d="M0 0 C3.63332579 2.9727211 4.52535989 4.52775915 5.125 9.125 C4.64541545 13.12153796 3.28260567 15.15459308 0.75 18.25 C-2.45785018 20.60242347 -5.34649252 20.7184209 -9.25 20.25 C-12.31471302 18.59976991 -14.55778907 17.193924 -16.625 14.375 C-17.94601084 9.88356315 -17.73383625 7.14855304 -15.5 3 C-11.07554167 -2.40767129 -6.28755102 -3.38560439 0 0 Z " fill="#4882BA" transform="translate(54.25,38.75)"/>
<path d="M0 0 C3.42855764 1.41871351 5.17116999 2.75216182 7 6 C7.49431592 8.96362978 7.50969103 11.87562535 7.5 14.875 C7.52835938 15.66519531 7.55671875 16.45539062 7.5859375 17.26953125 C7.60023769 21.56673915 7.26646227 24.2055498 4.46875 27.5703125 C3.6540625 28.37210938 2.839375 29.17390625 2 30 C1.01 29.67 0.02 29.34 -1 29 C-2.6635348 25.43369295 -3.7531816 21.74045519 -5 18 C-9.29 17.67 -13.58 17.34 -18 17 C-18 15.68 -18 14.36 -18 13 C-11.565 12.505 -11.565 12.505 -5 12 C-4.54625 10.576875 -4.0925 9.15375 -3.625 7.6875 C-2.66055791 4.6626589 -1.79068573 2.6860286 0 0 Z " fill="#D4D3D3" transform="translate(27,33)"/>
<path d="M0 0 C3 1 3 1 4.6875 3.6875 C6 7 6 7 6 13 C10.62 13 15.24 13 20 13 C20 14.32 20 15.64 20 17 C15.38 17 10.76 17 6 17 C5.8453125 18.8253125 5.8453125 18.8253125 5.6875 20.6875 C5.23780688 24.41069448 4.21617222 26.91662995 2 30 C-1.42855764 28.58128649 -3.17116999 27.24783818 -5 24 C-5.49431592 21.03637022 -5.50969103 18.12437465 -5.5 15.125 C-5.52835938 14.33480469 -5.55671875 13.54460938 -5.5859375 12.73046875 C-5.60023769 8.43326085 -5.26646227 5.7944502 -2.46875 2.4296875 C-1.6540625 1.62789062 -0.839375 0.82609375 0 0 Z " fill="#D5D3D3" transform="translate(67,33)"/>
<path d="M0 0 C1.46933196 0.81378385 2.93202123 1.64035308 4.375 2.5 C2.9684607 5.89913665 1.65683214 7.76938755 -1.625 9.5 C-4.59056024 9.98442025 -7.50002878 10.00969296 -10.5 10 C-11.29019531 10.02835938 -12.08039062 10.05671875 -12.89453125 10.0859375 C-17.19173915 10.10023769 -19.8305498 9.76646227 -23.1953125 6.96875 C-23.99710938 6.1540625 -24.79890625 5.339375 -25.625 4.5 C-24.625 1.5 -24.625 1.5 -22.91015625 0.33203125 C-14.71858099 -3.42544 -8.20510509 -4.0620478 0 0 Z " fill="#CECDCD" transform="translate(58.625,24.5)"/>
<path d="M0 0 C1.19206055 -0.04930664 1.19206055 -0.04930664 2.40820312 -0.09960938 C6.72629579 -0.13889723 9.37724744 0.14892386 12.76171875 2.96484375 C13.56222656 3.78082031 14.36273438 4.59679687 15.1875 5.4375 C14.1875 8.4375 14.1875 8.4375 11.61328125 10.09765625 C7.77170947 11.60011819 4.44055023 11.93307929 0.375 11.875 C-0.32625 11.87177734 -1.0275 11.86855469 -1.75 11.86523438 C-7.48581748 11.71150174 -11.96361791 10.45458219 -16.8125 7.4375 C-10.99699812 1.4648224 -8.05861033 0.05797561 0 0 Z " fill="#D1CFCE" transform="translate(47.8125,61.5625)"/>
<path d="M0 0 C0.66 0 1.32 0 2 0 C4.0331579 3.04973685 4.2548508 3.68956868 4.265625 7.125 C4.26820312 7.91390625 4.27078125 8.7028125 4.2734375 9.515625 C4.26570313 10.33546875 4.25796875 11.1553125 4.25 12 C4.25773437 12.81984375 4.26546875 13.6396875 4.2734375 14.484375 C4.27085938 15.27328125 4.26828125 16.0621875 4.265625 16.875 C4.26336914 17.59429687 4.26111328 18.31359375 4.25878906 19.0546875 C4 21 4 21 2 24 C1.34 24 0.68 24 0 24 C-3.76174242 18.35738637 -3.70638604 12.6291613 -3 6 C-2.23860817 3.63705982 -1.38678843 2.08018264 0 0 Z " fill="#4881B9" transform="translate(30,36)"/>
<path d="M0 0 C1.670625 0.7425 1.670625 0.7425 3.375 1.5 C3.375 2.16 3.375 2.82 3.375 3.5 C0.32526315 5.5331579 -0.31456868 5.7548508 -3.75 5.765625 C-4.53890625 5.76820312 -5.3278125 5.77078125 -6.140625 5.7734375 C-6.96046875 5.76570313 -7.7803125 5.75796875 -8.625 5.75 C-9.44484375 5.75773437 -10.2646875 5.76546875 -11.109375 5.7734375 C-11.89828125 5.77085938 -12.6871875 5.76828125 -13.5 5.765625 C-14.21929687 5.76336914 -14.93859375 5.76111328 -15.6796875 5.75878906 C-17.625 5.5 -17.625 5.5 -20.625 3.5 C-20.625 2.84 -20.625 2.18 -20.625 1.5 C-14.02366287 -2.66926556 -7.19601439 -2.67936706 0 0 Z " fill="#4B85BC" transform="translate(56.625,28.5)"/>
<path d="M0 0 C5.94 0 11.88 0 18 0 C18.66 1.32 19.32 2.64 20 4 C16.20129518 6.63954122 13.61446412 7.41031478 9 7.375 C7.989375 7.38273437 6.97875 7.39046875 5.9375 7.3984375 C2.63755402 6.95083844 0.71274731 5.88496045 -2 4 C-1.34 2.68 -0.68 1.36 0 0 Z " fill="#4680B7" transform="translate(39,62)"/>
<path d="M0 0 C3 1 3 1 4.16796875 2.76171875 C6.12997501 8.03979192 5.70615558 13.99124459 3.5 19.125 C3.005 20.07375 2.51 21.0225 2 22 C0.68 21.34 -0.64 20.68 -2 20 C-2.05379226 17.04142591 -2.09357093 14.08382279 -2.125 11.125 C-2.14175781 10.28324219 -2.15851562 9.44148438 -2.17578125 8.57421875 C-2.18222656 7.76855469 -2.18867187 6.96289062 -2.1953125 6.1328125 C-2.21102295 5.01737061 -2.21102295 5.01737061 -2.22705078 3.87939453 C-2 2 -2 2 0 0 Z " fill="#4982B9" transform="translate(64,37)"/>
<path d="M0 0 C1.32 0.66 2.64 1.32 4 2 C3.505 2.9075 3.01 3.815 2.5 4.75 C0.04582387 10.49978407 -0.06604344 17.3484949 1.6796875 23.328125 C2.53818124 25.42442644 2.53818124 25.42442644 4 28 C2.02 28.99 2.02 28.99 0 30 C-1.5625 27.6875 -1.5625 27.6875 -3 25 C-2.505 23.515 -2.505 23.515 -2 22 C-1.90471177 19.66824086 -1.87013812 17.33370026 -1.875 15 C-1.87242188 13.7625 -1.86984375 12.525 -1.8671875 11.25 C-1.85008698 7.98769227 -1.85008698 7.98769227 -3 5 C-1.5625 2.3125 -1.5625 2.3125 0 0 Z " fill="#C8C6C6" transform="translate(27,33)"/>
<path d="M0 0 C0 0.33 0 0.66 0 1 C-0.93972656 1.09087891 -0.93972656 1.09087891 -1.8984375 1.18359375 C-2.71570313 1.26738281 -3.53296875 1.35117187 -4.375 1.4375 C-5.18710937 1.51871094 -5.99921875 1.59992187 -6.8359375 1.68359375 C-9.04272805 1.89090114 -9.04272805 1.89090114 -11 3 C-8.36 3.33 -5.72 3.66 -3 4 C-3 4.33 -3 4.66 -3 5 C-3.66386719 5.12117188 -4.32773437 5.24234375 -5.01171875 5.3671875 C-9.53424459 6.22547708 -13.79938524 7.03971311 -18 9 C-18.66 7.68 -19.32 6.36 -20 5 C-13.16714816 0.92936486 -7.96475086 -0.76258253 0 0 Z " fill="#BDC0C6" transform="translate(53,22)"/>
<path d="M0 0 C3 1 3 1 4.75 3.8125 C5.98589446 6.96403086 6.28222189 7.96929372 5 11 C5 10.01 5 9.02 5 8 C3.68 8.33 2.36 8.66 1 9 C0.71125 8.38125 0.4225 7.7625 0.125 7.125 C-0.93720042 4.86674235 -0.93720042 4.86674235 -3 3 C-2.01 2.01 -1.02 1.02 0 0 Z " fill="#C8C6C7" transform="translate(67,33)"/>
<path d="M0 0 C1.98 1.32 3.96 2.64 6 4 C5.34 5.32 4.68 6.64 4 8 C1.03 7.01 -1.94 6.02 -5 5 C-3.35 3.35 -1.7 1.7 0 0 Z " fill="#BBBDC1" transform="translate(36,64)"/>
<path d="M0 0 C1.32 1.32 2.64 2.64 4 4 C3.34 5.98 2.68 7.96 2 10 C0.68 10 -0.64 10 -2 10 C-2.66 9.01 -3.32 8.02 -4 7 C-3.525625 6.5875 -3.05125 6.175 -2.5625 5.75 C-0.83733482 3.817815 -0.43415125 2.51807725 0 0 Z " fill="#BDBFC2" transform="translate(68,52)"/>
<path d="M0 0 C1.32 0.99 2.64 1.98 4 3 C3.67 3.99 3.34 4.98 3 6 C-0.0625 7.1875 -0.0625 7.1875 -3 8 C-3.66 6.68 -4.32 5.36 -5 4 C-4.360625 3.71125 -3.72125 3.4225 -3.0625 3.125 C-0.84793921 2.17176549 -0.84793921 2.17176549 0 0 Z " fill="#C0C0C2" transform="translate(59,64)"/>
<path d="M0 0 C0.33 0 0.66 0 1 0 C1 1.98 1 3.96 1 6 C1.99 6 2.98 6 4 6 C3.67 7.65 3.34 9.3 3 11 C2.01 11 1.02 11 0 11 C0 7.37 0 3.74 0 0 Z " fill="#D0CDCD" transform="translate(69,45)"/>
<path d="M0 0 C-0.99 0.495 -0.99 0.495 -2 1 C-2 1.66 -2 2.32 -2 3 C-4.64 3 -7.28 3 -10 3 C-7.29536552 -0.8183075 -4.37912428 -0.24787496 0 0 Z " fill="#DAD6D4" transform="translate(51,23)"/>
<path d="M0 0 C0.99 0.33 1.98 0.66 3 1 C2.34 2.98 1.68 4.96 1 7 C-0.32 5.68 -1.64 4.36 -3 3 C-2.01 2.01 -1.02 1.02 0 0 Z " fill="#B5B7BC" transform="translate(67,33)"/>
<path d="M0 0 C0.99 0.33 1.98 0.66 3 1 C2.34 2.32 1.68 3.64 1 5 C-1.475 4.01 -1.475 4.01 -4 3 C-2.68 2.67 -1.36 2.34 0 2 C0 1.34 0 0.68 0 0 Z " fill="#C0BFC0" transform="translate(60,26)"/>
</svg>
